<svg version="1.1" xmlns="http://www.w3.org/2000/svg" style="display: block;" viewBox="0 0 2048 2048" width="512" height="512">
<path transform="translate(0,0)" fill="rgb(255,165,0)" d="M 1606.23 364.236 C 1664.1 359.174 1677.89 437.01 1619.85 452.79 C 1565.19 464.903 1544 374.207 1606.23 364.236 z M 1610.4 393.004 C 1592.08 399.07 1589.6 424.049 1619.85 422.997 C 1636.47 414.111 1626.89 393.388 1610.4 393.004 z"/>
<path transform="translate(0,0)" fill="rgb(255,165,0)" d="M 1717.95 499.267 C 1774.1 494.856 1790.78 575.754 1727.72 591.116 C 1662.84 591.092 1655.6 511.117 1717.95 499.267 z M 1717.95 529.939 C 1697.35 540.238 1703.46 561.893 1727.72 559.94 C 1746.56 553.505 1738.96 527.803 1717.95 529.939 z"/>
<path transform="translate(0,0)" fill="rgb(255,165,0)" d="M 1747.98 383.786 C 1755.89 388.497 1764.36 399.689 1770.43 406.725 C 1752.83 426.161 1729.26 442.072 1709.23 459.115 C 1672.91 490.016 1637.71 522.875 1599.43 551.352 L 1598.23 551.668 C 1593.45 549.573 1581.97 534.506 1577.54 529.939 C 1625.89 481.883 1694.86 429.549 1747.98 383.786 z"/>
<path transform="translate(0,0)" fill="rgb(255,223,186)" d="M 1376.72 1619.23 C 1077.16 1791.08 715.52 1756.3 472.344 1501.4 C 340.64 1363.35 276.169 1182.03 280.879 993.259 C 291.85 553.552 703.796 240.441 1126.22 320.269 C 1308.18 354.656 1468.81 456.655 1575.36 607.461 C 1763.95 874.403 1750.53 1243.16 1531.92 1489.42 C 1516.38 1506.93 1499.06 1522.69 1482.04 1538.73 C 1478.25 1541.92 1474.48 1545.56 1470.41 1548.35 C 1444.74 1571.45 1418.63 1591.05 1389.55 1609.62 C 1385.84 1613.51 1381.47 1616.7 1376.72 1619.23 z"/>
<path transform="translate(0,0)" fill="rgb(254,182,91)" d="M 535.192 1285.24 C 552.814 1285.3 576.138 1287.08 592.98 1285.24 C 593.139 1294.2 593.238 1303.11 592.98 1312.07 L 535.192 1312.07 L 535.192 1307.57 C 535.755 1300.19 535.333 1292.65 535.192 1285.24 z"/>
<path transform="translate(0,0)" fill="rgb(254,182,91)" d="M 813.966 1285.24 C 813.689 1297.79 807.798 1311.27 824.259 1312.07 C 800.8 1313.24 776.677 1312.09 753.149 1312.07 L 753.149 1285.24 C 772.983 1282.74 794.183 1288.34 813.966 1285.24 z"/>
<path transform="translate(0,0)" fill="rgb(254,182,91)" d="M 986.853 1285.24 C 1006.9 1285.98 1026.9 1285.08 1046.95 1285.24 L 1046.95 1312.07 C 1029.56 1313.21 983.17 1314.23 967.605 1312.07 C 973.967 1311.66 980.474 1311.99 986.853 1312.07 L 986.853 1297.55 C 986.983 1293.46 986.863 1289.34 986.853 1285.24 z"/>
<path transform="translate(0,0)" fill="rgb(255,165,0)" d="M 1447.08 1285.24 C 1451.67 1284.1 1536.12 1284.6 1546.11 1285.24 L 1546.11 1372.36 C 1533.16 1357.32 1514.81 1329.81 1506.33 1312.07 C 1490.59 1312.14 1461.46 1313.82 1447.08 1312.07 C 1447.44 1303.15 1447.16 1294.17 1447.08 1285.24 z"/>
<path transform="translate(0,0)" fill="rgb(255,165,0)" d="M 366.714 1285.24 C 367.351 1264.17 357.757 1186.68 380.743 1183.32 C 404.559 1179.84 495.645 1180.52 520.335 1183.08 C 539.705 1185.09 535.368 1218.72 535.345 1231.91 L 535.192 1285.24 C 535.333 1292.65 535.755 1300.19 535.192 1307.57 L 535.192 1312.07 L 366.714 1312.07 C 366.297 1303.06 366.255 1294.25 366.714 1285.24 z"/>
<path transform="translate(0,0)" fill="rgb(70,130,180)" d="M 592.98 1285.24 L 592.889 1052.58 C 592.859 1038.96 589.695 1017.25 599.646 1006.16 C 606.309 998.726 714.749 998.766 734.8 1001.51 C 759.065 1004.83 753.289 1034.35 753.239 1052.14 L 753.149 1285.24 L 753.149 1285.24 L 753.149 1312.07 C 735.692 1311.15 717.665 1312.05 700.155 1312.06 L 592.98 1312.07 C 593.238 1303.11 593.139 1294.2 592.98 1285.24 z"/>
<path transform="translate(0,0)" fill="rgb(255,165,0)" d="M 1069.77 554.203 C 1085.23 552.778 1101.79 554.132 1117.38 554.149 L 1214.72 554.203 C 1233.31 566.143 1227.15 590.301 1227.11 609.644 L 1227.03 903.613 C 1188.68 894.253 1140.17 901.094 1107.21 923.366 C 1087.26 926.952 1071.71 949.54 1058.9 963.914 C 1056.59 951.873 1058.83 931.442 1058.89 918.424 L 1058.75 594.645 C 1058.57 577.358 1054.84 566.246 1069.77 554.203 z"/>
<path transform="translate(0,0)" fill="rgb(70,130,180)" d="M 1277.03 923.366 L 1277.11 788.902 C 1277.13 769.182 1270.57 729.738 1284.31 713.624 C 1300.37 706.078 1426.39 707.965 1436.46 711.594 C 1441.36 713.36 1444.58 718.909 1447.08 723.149 L 1447.08 1285.24 L 1447.08 1285.24 C 1447.16 1294.17 1447.44 1303.15 1447.08 1312.07 L 1281.13 1312.07 C 1283.13 1302.47 1297.99 1290.27 1305.98 1285.24 C 1327.31 1230.46 1394.08 1188.51 1382.28 1110 C 1381.4 1067.55 1330.9 960.101 1301.47 940.933 C 1295.05 933.952 1285.66 927.246 1277.03 923.366 z"/>
<path transform="translate(0,0)" fill="rgb(255,165,0)" d="M 813.966 1285.24 L 813.95 861.711 C 813.969 766.908 801.981 783.097 898.123 783.186 C 920.798 783.207 944.891 781.222 967.403 783.241 C 997.396 785.93 986.885 833.86 986.885 859.213 L 986.853 1285.24 C 986.863 1289.34 986.983 1293.46 986.853 1297.55 L 986.853 1312.07 C 980.474 1311.99 973.967 1311.66 967.605 1312.07 L 824.259 1312.07 C 807.798 1311.27 813.689 1297.79 813.966 1285.24 z"/>
<path transform="translate(0,0)" fill="rgb(219,112,147)" d="M 1058.9 963.914 C 1071.71 949.54 1087.26 926.952 1107.21 923.366 C 1078.48 955.718 1077.73 992.804 1084.46 1032.95 L 1084.46 1032.95 C 1142.99 1020.51 1168.49 1023.05 1227.03 1020.95 C 1227.02 1060.01 1225.43 1102.97 1227.03 1141.63 C 1248.19 1111.19 1276.46 1062.89 1296.95 1036.62 L 1296.95 1036.62 C 1312.92 1017.62 1306.24 963.872 1301.47 940.933 C 1330.9 960.101 1381.4 1067.55 1382.28 1110 C 1394.08 1188.51 1327.31 1230.46 1305.98 1285.24 C 1297.99 1290.27 1283.13 1302.47 1281.13 1312.07 L 1277.03 1316.2 C 1323.96 1371.21 1376.26 1422.42 1426.29 1474.64 C 1441.63 1490.66 1476.17 1517.11 1482.04 1538.73 C 1478.25 1541.92 1474.48 1545.56 1470.41 1548.35 C 1444.74 1571.45 1418.63 1591.05 1389.55 1609.62 C 1385.84 1613.51 1381.47 1616.7 1376.72 1619.23 C 1321.23 1568 1228.91 1480.63 1183.09 1422.34 C 1163.21 1438.17 1146.7 1460.81 1129.36 1479.47 C 1082.56 1529.84 1033.87 1580.35 990.745 1633.98 C 979.355 1609.29 971.845 1583.33 958.674 1559.33 C 936.972 1549.57 904.116 1541.52 880.713 1534.91 C 893.244 1523.91 904.497 1511.02 916.181 1499.11 L 976.009 1438.55 C 1015.2 1398.74 1056.05 1360.54 1094.75 1320.25 C 1092.72 1316.82 1090.48 1314.62 1087.43 1312.07 C 1073.98 1311.65 1060.41 1312.05 1046.95 1312.07 L 1046.95 1285.24 L 1046.95 1285.24 C 1047.01 1273.76 1047.09 1262.27 1046.95 1250.78 C 1041.8 1236.71 1033.18 1224.97 1026.41 1211.75 C 1005.21 1170.33 1004.64 1146.34 1005.05 1101.24 C 1010.28 1065.71 1020.93 1032.81 1038.34 1001.37 C 1045.27 988.85 1054.32 977.624 1058.9 963.914 z"/>
<path transform="translate(0,0)" fill="rgb(70,130,180)" d="M 1046.95 1250.78 L 1047.86 1249.79 C 1055.75 1261.13 1062.64 1273.4 1069.77 1285.24 C 1075.5 1293.9 1082.69 1302.94 1087.43 1312.07 C 1073.98 1311.65 1060.41 1312.05 1046.95 1312.07 L 1046.95 1285.24 L 1046.95 1285.24 C 1047.01 1273.76 1047.09 1262.27 1046.95 1250.78 z"/>
<path transform="translate(0,0)" fill="rgb(255,223,186)" d="M 1401.63 1538.73 C 1424.55 1541.21 1447.87 1543.41 1470.41 1548.35 C 1444.74 1571.45 1418.63 1591.05 1389.55 1609.62 C 1388.46 1601.53 1399.62 1551.53 1401.63 1538.73 z"/>
<path transform="translate(0,0)" fill="rgb(255,165,0)" d="M 1084.46 1032.95 C 1142.99 1020.51 1168.49 1023.05 1227.03 1020.95 C 1227.02 1060.01 1225.43 1102.97 1227.03 1141.63 C 1212.37 1160.28 1198.21 1179.53 1183.09 1197.81 C 1153.87 1167.37 1087.41 1066.82 1084.46 1032.95 z"/>
</svg>