<svg version="1.1" xmlns="http://www.w3.org/2000/svg" style="display: block;" viewBox="0 0 2048 1024" width="1024" height="512">
<path transform="translate(0,0)" fill="rgb(105,138,202)" d="M 237.191 718.123 C 362.752 716.652 488.525 718.148 614.1 718.154 L 1369.54 718.148 C 1447.49 718.142 1526.96 721.589 1604.48 712.215 C 1618.58 710.51 1708.77 694.781 1712.09 695.777 C 1708.45 702.406 1696.41 709.125 1690.21 713.615 C 1577.86 795.014 1459.06 810.025 1326.26 810.031 L 406.019 810.062 C 330.63 810.151 264.95 807.818 237.191 718.123 z"/>
<path transform="translate(0,0)" fill="rgb(225,101,86)" d="M 1362.91 545.76 L 1729.11 464.311 C 1752.17 459.052 1773.05 450.052 1794.81 463.858 C 1810.03 473.52 1819.03 490.537 1816.79 508.51 C 1815.78 516.595 1808.16 555.594 1803.41 559.866 C 1810.7 585.441 1733.05 687.083 1712.09 695.777 C 1708.77 694.781 1618.58 710.51 1604.48 712.215 C 1526.96 721.589 1447.49 718.142 1369.54 718.148 L 614.1 718.154 C 488.525 718.148 362.752 716.652 237.191 718.123 C 232.731 705.845 232.021 683.273 237.191 671.043 C 234.713 595.773 316.547 562.418 381.871 566.209 C 425.645 597.685 439.24 595.229 493.894 595.162 L 1117.43 595.115 C 1182.4 595.129 1330.21 615.283 1362.91 545.76 z"/>
<path transform="translate(0,0)" fill="rgb(230,230,78)" d="M 1526.73 627.014 C 1529.42 621.596 1527.43 608.898 1528.19 602.309 C 1537.11 525.579 1647.87 558.648 1642.37 595.115 C 1690.76 581.368 1753.7 569.586 1803.41 559.866 C 1810.7 585.441 1733.05 687.083 1712.09 695.777 C 1708.77 694.781 1618.58 710.51 1604.48 712.215 C 1526.96 721.589 1447.49 718.142 1369.54 718.148 L 614.1 718.154 C 488.525 718.148 362.752 716.652 237.191 718.123 C 232.731 705.845 232.021 683.273 237.191 671.043 L 1195.41 671.03 C 1234.86 671.035 1277.51 673.239 1316.51 670.344 C 1344.04 668.299 1498.11 639.76 1526.73 627.014 z"/>
<path transform="translate(0,0)" fill="rgb(105,138,202)" d="M 1526.73 627.014 C 1529.42 621.596 1527.43 608.898 1528.19 602.309 C 1537.11 525.579 1647.87 558.648 1642.37 595.115 C 1669.84 645.212 1573.29 716.725 1531.55 635.27 C 1530.1 632.432 1529.17 629.15 1526.73 627.014 z"/>
<path transform="translate(0,0)" fill="rgb(155,155,155)" d="M 476.951 326.957 C 476.602 320.343 472.476 267.198 495.362 286.214 C 504.19 293.549 499.721 317.1 499.106 326.957 L 757.945 326.957 C 757.689 317.489 754.15 294.063 761.281 287.079 C 768.894 279.623 776.326 286.466 780.101 293.164 L 780.101 326.957 L 847.516 326.877 C 857.385 326.843 868.487 325.609 878.168 326.957 L 878.168 326.957 C 909.421 324.236 968.367 325.456 1000.08 326.957 C 999.906 316.834 996.783 295.198 1003.82 287.787 C 1019.19 271.608 1024.58 299.389 1024.03 311.582 L 1023.25 326.957 C 1041.84 326.957 1202.72 325.752 1205.72 326.957 L 1223.01 326.957 C 1229.91 315.597 1213.99 291.686 1232.45 285.53 C 1251.03 279.33 1249.95 318.17 1248.02 326.957 C 1317.93 326.605 1379.01 338.938 1379.29 423.451 C 1379.32 432.41 1381.41 471.712 1379.22 476.794 C 1383.98 488.446 1374.23 534.752 1362.91 545.76 C 1330.21 615.283 1182.4 595.129 1117.43 595.115 L 493.894 595.162 C 439.24 595.229 425.645 597.685 381.871 566.209 C 347.745 533.958 346.091 498.857 347.817 453.954 C 346.959 395.069 355.716 335.016 427.734 326.957 C 441.865 324.297 462.277 326.87 476.951 326.957 z"/>
<path transform="translate(0,0)" fill="rgb(117,199,179)" d="M 1248.02 346.948 C 1277.64 350.832 1319.98 393.884 1304.1 418.757 C 1295.25 418.736 1252.49 421.151 1248.02 418.757 C 1248.82 416.125 1248.83 349.266 1248.02 346.948 z"/>
<path transform="translate(0,0)" fill="rgb(219,221,221)" d="M 1248.02 418.757 C 1252.49 421.151 1295.25 418.736 1304.1 418.757 C 1310.89 428.045 1298.05 441.686 1290.22 445.337 C 1277.61 446.394 1185.84 446.642 1178.67 443.475 C 1169.22 439.303 1168.15 427.151 1164.76 418.757 C 1175.87 418.531 1215.98 421.009 1223.01 418.757 C 1227.61 419.327 1243.89 419.695 1248.02 418.757 z"/>
<path transform="translate(0,0)" fill="rgb(117,199,179)" d="M 1223.01 340.979 C 1230.64 338.686 1240.27 339.562 1248.02 340.979 C 1248.87 343.778 1248.86 344.144 1248.02 346.948 C 1248.83 349.266 1248.82 416.125 1248.02 418.757 C 1243.89 419.695 1227.61 419.327 1223.01 418.757 C 1215.98 421.009 1175.87 418.531 1164.76 418.757 C 1180.46 381.844 1162.34 366.07 1223.01 344.923 L 1223.01 340.979 z"/>
<path transform="translate(0,0)" fill="rgb(219,221,221)" d="M 1223.01 340.979 C 1230.64 338.686 1240.27 339.562 1248.02 340.979 C 1248.87 343.778 1248.86 344.144 1248.02 346.948 C 1248.83 349.266 1248.82 416.125 1248.02 418.757 C 1243.89 419.695 1227.61 419.327 1223.01 418.757 C 1224.8 413.755 1224.28 347.516 1223.01 344.923 L 1223.01 340.979 z"/>
<path transform="translate(0,0)" fill="rgb(219,221,221)" d="M 1000.08 344.923 C 1003.82 340.934 1020.88 338.888 1023.25 344.923 L 1023.25 344.923 C 1052.41 350.903 1097.77 396.057 1079.12 418.757 C 1084.18 429.39 1073.73 441.078 1064.74 445.337 L 959.009 445.337 C 948.226 438.89 944.037 431.201 941.867 418.757 C 943.505 380.55 962.116 355.202 1000.08 344.923 L 1000.08 344.923 z"/>
<path transform="translate(0,0)" fill="rgb(230,230,78)" d="M 1000.08 344.923 C 1000.02 351.757 999.825 358.633 1000.08 365.461 L 1000.08 418.757 L 941.867 418.757 C 943.505 380.55 962.116 355.202 1000.08 344.923 z"/>
<path transform="translate(0,0)" fill="rgb(230,230,78)" d="M 1023.25 344.923 C 1052.41 350.903 1097.77 396.057 1079.12 418.757 C 1067.77 418.6 1031.35 421.788 1023.25 418.757 L 1023.25 344.923 z"/>
<path transform="translate(0,0)" fill="rgb(219,221,221)" d="M 757.945 340.979 C 765.219 340.903 772.872 340.337 780.101 340.979 L 780.101 344.923 C 816.839 352.868 843.781 379.427 840.382 418.757 C 839.408 429.072 835.81 442.283 823.904 444.456 C 810.539 446.896 735.616 446.266 720.863 444.493 C 706.22 442.733 702.242 432.188 699.893 418.757 C 699.317 380.905 719.628 351.856 757.945 344.923 L 757.945 340.979 z"/>
<path transform="translate(0,0)" fill="rgb(230,230,78)" d="M 757.945 344.923 C 757.89 369.484 757.244 394.216 757.945 418.757 C 754.711 420.356 708.552 418.759 699.893 418.757 C 699.317 380.905 719.628 351.856 757.945 344.923 z"/>
<path transform="translate(0,0)" fill="rgb(230,230,78)" d="M 780.101 344.923 C 816.839 352.868 843.781 379.427 840.382 418.757 C 820.351 418.085 800.063 420.232 780.101 418.757 L 780.101 344.923 z"/>
<path transform="translate(0,0)" fill="rgb(219,221,221)" d="M 476.951 340.979 C 484.05 339.922 491.919 340.768 499.106 340.979 L 499.106 344.923 C 539.218 348.714 559.637 380.896 560.301 418.757 C 559.757 428.013 555.013 441.328 545.132 444.199 C 535.425 447.019 440.236 446.402 434.077 442.689 C 425.163 437.315 421.788 428.352 419.47 418.757 C 419.918 381.638 437.483 350.358 476.951 344.923 L 476.951 340.979 z"/>
<path transform="translate(0,0)" fill="rgb(225,101,86)" d="M 419.47 418.757 C 419.918 381.638 437.483 350.358 476.951 344.923 L 476.951 418.757 C 457.807 418.68 438.608 418.297 419.47 418.757 z"/>
<path transform="translate(0,0)" fill="rgb(225,101,86)" d="M 499.106 344.923 C 539.218 348.714 559.637 380.896 560.301 418.757 L 499.106 418.757 L 499.106 344.923 z"/>
<path transform="translate(0,0)" fill="rgb(105,138,202)" d="M 347.817 453.954 L 347.817 476.794 C 442.656 476.79 1377.65 477.641 1379.22 476.794 C 1383.98 488.446 1374.23 534.752 1362.91 545.76 C 1330.21 615.283 1182.4 595.129 1117.43 595.115 L 493.894 595.162 C 439.24 595.229 425.645 597.685 381.871 566.209 C 347.745 533.958 346.091 498.857 347.817 453.954 z"/>
</svg>