<svg version="1.1" xmlns="http://www.w3.org/2000/svg" style="display: block;" viewBox="0 0 2048 1024" width="1024" height="512">
<path transform="translate(0,0)" fill="rgb(155,155,155)" d="M 294.758 251.5 C 336.579 250.411 349.878 291.887 328.934 324.976 C 319.902 324.807 310.895 324.841 301.863 324.976 C 288.511 322.411 275.627 321.465 262.08 321.028 C 244.613 290.131 258.848 255.314 294.758 251.5 z"/>
<path transform="translate(0,0)" fill="rgb(117,199,179)" d="M 1099.27 251.5 C 1149.45 247.03 1163.99 301.14 1143.65 324.976 C 1135.33 324.803 1127 324.927 1118.68 324.976 C 1104.09 324.902 1089.51 324.801 1074.92 324.976 C 1077.47 307.528 1043.93 277.316 1099.27 251.5 z"/>
<path transform="translate(0,0)" fill="rgb(105,138,202)" d="M 1648.04 251.5 C 1698.59 249.578 1713.02 305.093 1687.12 324.976 C 1679.09 325.537 1671.23 325.339 1663.19 324.976 C 1649.8 325.327 1636.48 325.286 1623.09 324.976 C 1622.25 320.791 1618.93 315.954 1617.18 311.961 C 1605.14 284.523 1623.33 262.006 1648.04 251.5 z"/>
<path transform="translate(0,0)" fill="rgb(225,101,86)" d="M 836.57 251.5 C 886.618 244.758 894.274 286.773 876.752 324.976 C 868.67 325.733 860.115 325.082 851.983 324.976 L 813.296 324.976 C 791.204 296.542 802.576 260.938 836.57 251.5 z"/>
<path transform="translate(0,0)" fill="rgb(225,101,86)" d="M 1375.03 251.5 C 1422.99 246.947 1439.12 304.958 1415.09 324.976 C 1405.71 325.45 1396.15 325.017 1386.75 324.976 C 1373.71 325.858 1360.64 325.476 1347.6 324.976 C 1348.73 311.863 1315.62 269.757 1375.03 251.5 z"/>
<path transform="translate(0,0)" fill="rgb(225,101,86)" d="M 580.338 251.5 C 621.97 249.614 632.182 295.18 612.627 324.976 L 580.338 324.976 C 568.995 323.909 558.014 324.053 546.662 324.976 C 525.992 292.846 539.998 251.796 580.338 251.5 z"/>
<path transform="translate(0,0)" fill="rgb(230,234,150)" d="M 1550.07 376.844 C 1582.46 364.038 1586.44 384.994 1590.2 415.918 C 1591.97 418.79 1626.41 548.218 1626.3 549.987 C 1628.49 555.464 1629.16 569.516 1633.75 572.268 C 1625.82 571.782 1613.18 567.382 1608.13 575.141 L 1608.89 573.258 C 1608.7 571.697 1603.6 569.48 1601.92 567.081 C 1598.56 562.292 1598.11 555.841 1596.64 550.293 L 1562.21 422.554 C 1559.81 413.523 1553.43 383.14 1550.07 376.844 z"/>
<path transform="translate(0,0)" fill="rgb(105,138,202)" d="M 1390.09 618.979 C 1372.45 616.847 1332.55 628.765 1333.23 608.304 C 1334.34 574.952 1302.66 470.044 1291.94 433.647 C 1287.47 418.487 1278.95 397.135 1277.89 382.103 C 1276.85 367.408 1321.36 362.858 1316.37 415.918 C 1319.78 422.1 1353.14 544.24 1353 549.987 C 1363.45 556.6 1370.9 567.327 1383.33 570.708 C 1390.99 572.79 1418.68 570.628 1420.86 572.268 C 1426.69 574.793 1457.77 592.617 1460.08 595.992 C 1472.16 630.609 1428.78 617.321 1409.38 618.979 C 1403.05 618.696 1396.36 617.902 1390.09 618.979 z M 1353 549.987 C 1354.58 555.111 1359.9 567.537 1357.98 572.268 C 1374.17 573.093 1405.71 575.232 1420.86 572.268 C 1418.68 570.628 1390.99 572.79 1383.33 570.708 C 1370.9 567.327 1363.45 556.6 1353 549.987 z"/>
<path transform="translate(0,0)" fill="rgb(105,138,202)" d="M 1062.46 618.979 C 1069.88 604.657 1053.62 559.232 1049.32 544.231 L 1017.46 436.053 C 1014.73 426.963 992.801 375.823 1008.65 373.001 C 1035.13 368.286 1041.21 392.595 1044.19 415.918 C 1047.82 421.24 1074.73 527.229 1085.03 556.948 C 1110.77 574.183 1113.22 572.712 1143.65 572.268 C 1154.67 572.213 1180.87 587.949 1192.52 594.862 L 1192.89 595.992 C 1193.3 601.585 1195.63 614.188 1192.89 618.979 C 1174.37 618.947 1155.43 618.039 1136.97 618.979 C 1130.97 618.442 1124.71 618.875 1118.68 618.979 C 1100.39 617.517 1080.89 618.939 1062.46 618.979 z M 1085.03 556.948 C 1084.89 560.578 1086.4 569.342 1085.03 572.268 C 1094.95 573.133 1137.47 576.159 1143.65 572.268 C 1113.22 572.712 1110.77 574.183 1085.03 556.948 z"/>
<path transform="translate(0,0)" fill="rgb(230,230,78)" d="M 791.629 618.979 C 791.313 583.213 787.655 575.685 778.428 540.769 L 751.499 437.795 C 748.685 427.218 733.298 383.359 736.635 374.776 C 744.219 371.226 758.286 372.352 766.807 372.043 C 772.361 386.124 774.92 401.617 780.153 415.918 C 788.076 456.841 802.014 509.365 813.296 549.987 C 838.088 588.789 863.096 562.883 888.46 572.268 C 899.451 580.909 911.924 587.389 922.797 595.992 C 925.382 603.614 927.853 611.216 929.982 618.979 C 910.033 618.972 889.946 618.521 870.01 618.979 C 863.945 619.288 858.047 619.335 851.983 618.979 C 831.877 618.763 811.738 618.977 791.629 618.979 z"/>
<path transform="translate(0,0)" fill="rgb(255,255,255)" d="M 813.296 549.987 C 838.088 588.789 863.096 562.883 888.46 572.268 C 868.096 578.324 840.355 574.251 818.852 575.141 C 817.316 566.699 815.237 558.344 813.296 549.987 z"/>
<path transform="translate(0,0)" fill="rgb(230,230,78)" d="M 522.037 618.979 C 521.931 608.035 523.479 595.918 521.417 585.185 C 516.249 558.288 463.929 381.789 467.884 373.73 C 476.202 370.008 489.947 371.875 499.065 372.043 C 504.862 386.219 505.903 401.87 511.61 415.918 C 519.381 457.067 534.93 509.657 546.662 549.987 C 580.374 589.211 613.139 559.399 625.862 575.141 C 632.009 581.622 638.142 587.669 645.053 593.33 C 649.847 601.476 652.77 610.436 656.718 618.979 L 598.403 618.979 C 592.398 619.28 586.349 619.056 580.338 618.979 C 560.974 619.737 541.418 619.104 522.037 618.979 z M 546.662 549.987 C 548.103 558.83 551.593 566.591 553.869 575.141 C 577.786 575.194 601.974 576.036 625.862 575.141 C 613.139 559.399 580.374 589.211 546.662 549.987 z"/>
<path transform="translate(0,0)" fill="rgb(230,230,78)" d="M 248.56 618.979 C 246.718 579.299 242.863 573.726 231.265 534.685 L 204.686 444.43 C 201.846 434.843 183.251 383.052 187.446 376.076 C 195.378 370.892 209.808 371.967 219.005 372.043 C 224.018 386.437 226.511 401.55 231.553 415.918 C 244.718 448.582 264.476 514.752 272.381 549.987 C 318.039 586.611 320.263 564.729 338.642 575.141 C 351.645 581.936 364.519 588.957 377.393 595.992 C 377.424 603.609 376.896 611.393 377.393 618.979 C 360.133 618.973 342.811 618.642 325.559 618.979 C 319.589 619.406 313.52 619.082 307.538 618.979 C 287.884 619.043 268.212 619.278 248.56 618.979 z M 272.381 549.987 C 273.649 556.784 276.48 563.104 277.716 569.861 C 292.694 577.124 321.638 576.431 338.642 575.141 C 320.263 564.729 318.039 586.611 272.381 549.987 z"/>
<path transform="translate(0,0)" fill="rgb(105,138,202)" d="M 780.153 415.918 C 784.184 379.919 788.724 324.86 837.511 330.989 C 861.499 334.002 891.395 350.77 906.137 369.973 C 927.979 398.427 917.767 437.076 919.653 470.265 C 938.418 483.06 969.607 496.501 985.062 510.263 C 995.619 519.664 997.432 538.34 980.57 541.054 C 967.761 543.116 908.637 495.492 914.567 513.366 C 986.098 565.915 1002.81 525.487 1002.7 622.557 L 1002.71 685.203 C 1002.73 709.627 1006.94 725.853 984.842 741.837 C 976.414 744.158 970.529 744.376 962.106 741.837 C 934.127 729.186 938.661 634.008 935.828 601.976 L 922.797 595.992 C 911.924 587.389 899.451 580.909 888.46 572.268 C 863.096 562.883 838.088 588.789 813.296 549.987 C 802.014 509.365 788.076 456.841 780.153 415.918 z"/>
<path transform="translate(0,0)" fill="rgb(155,155,155)" d="M 231.553 415.918 L 231.825 415.014 C 244.302 372.924 239.801 315.152 302.191 333.338 C 384.073 357.205 371.484 403.894 372.004 470.265 C 391.066 478.606 430.667 498.152 446.824 509.846 C 455.411 525.115 447.652 542.782 427.76 536.675 C 416.555 533.235 376.871 507.848 370.523 508.883 L 369.78 509.919 C 372.935 514.119 380.579 517.488 385.222 520.121 L 426.892 543.477 C 440.562 551.105 453.131 555.796 461.013 569.861 L 461.097 670.583 C 461.099 695.587 468.876 730.681 438.976 741.837 C 434.02 742.151 429.104 741.986 424.146 741.837 C 395.012 730.509 400.386 701.711 399.085 676.01 C 397.889 652.389 395.75 628.776 396.578 605.111 C 390.291 601.867 383.806 598.976 377.393 595.992 C 364.519 588.957 351.645 581.936 338.642 575.141 C 320.263 564.729 318.039 586.611 272.381 549.987 C 264.476 514.752 244.718 448.582 231.553 415.918 z"/>
<path transform="translate(0,0)" fill="rgb(225,101,86)" d="M 511.61 415.918 C 515.632 390.255 514.461 354.376 537.962 337.428 C 569.115 314.96 621.374 345.159 639.777 371.438 C 652.573 389.709 651.258 408.931 651.205 430.189 L 651.055 470.265 C 664.702 478.705 724.75 507.665 727.462 520.169 C 737.468 566.304 654.039 508.572 648.822 508.796 C 644.095 518.576 703.52 537.628 722.949 554.507 C 745.485 574.087 737.15 615.156 737.152 641.219 C 737.154 674.048 750.245 729.886 713.55 741.837 C 708.991 742.099 704.425 741.935 699.863 741.837 C 672.683 729.646 677.636 701.254 675.562 676.341 L 668.974 605.111 C 661.059 601.037 653.128 597.077 645.053 593.33 C 638.142 587.669 632.009 581.622 625.862 575.141 C 613.139 559.399 580.374 589.211 546.662 549.987 C 534.93 509.657 519.381 457.067 511.61 415.918 z"/>
<path transform="translate(0,0)" fill="rgb(225,101,86)" d="M 1316.37 415.918 C 1328.01 390.283 1319.26 347.318 1350.97 334.256 C 1385.87 319.876 1451.43 357.502 1455.63 398.7 C 1456.37 405.905 1457.06 464.478 1456 468.178 C 1472.8 477.465 1520.89 504.06 1533.84 515.459 C 1541.76 522.431 1539.38 539.811 1528.32 542.353 C 1510.34 546.484 1449.6 491.094 1456.24 512.962 C 1472.83 529.094 1531.06 547.406 1541.53 565.02 C 1550.89 580.751 1546.56 657.807 1546.59 678.25 C 1546.62 702.094 1553.7 733.076 1523.73 741.837 C 1519.15 742.487 1514.24 741.984 1509.63 741.837 C 1503.97 736.267 1496.36 735.436 1491.36 727.397 C 1479.74 708.696 1484.85 621.409 1476.18 605.111 C 1473.72 600.352 1465.14 596.711 1460.08 595.992 C 1457.77 592.617 1426.69 574.793 1420.86 572.268 C 1418.68 570.628 1390.99 572.79 1383.33 570.708 C 1370.9 567.327 1363.45 556.6 1353 549.987 C 1353.14 544.24 1319.78 422.1 1316.37 415.918 z"/>
<path transform="translate(0,0)" fill="rgb(117,199,179)" d="M 1044.19 415.918 C 1046.81 409.454 1044.76 401.87 1045.16 395.097 C 1047.78 350.232 1072.08 318.106 1118.55 334.926 C 1182.42 358.039 1185.25 382.332 1183.73 443.264 C 1183.53 451.125 1185.22 460.971 1181.43 468.178 C 1190.35 470.073 1255.92 507.673 1260.29 514.031 C 1267.34 524.287 1259.32 541.612 1246.22 538.467 C 1230.26 534.637 1195.77 505.432 1183.01 505.052 L 1181.83 506.17 C 1186 522.071 1264.66 545.523 1270.72 569.432 C 1276.81 593.428 1273.7 647.241 1273.92 674.369 C 1274.09 696.095 1281.45 731.537 1254.89 741.837 C 1246.56 743.764 1239.15 742.835 1230.8 741.837 C 1226.94 736.685 1219.7 734.585 1216.6 728.281 C 1205.03 704.758 1211.38 615.227 1203.41 601.976 C 1201.14 598.817 1196.37 597.265 1192.89 595.992 L 1192.52 594.862 C 1180.87 587.949 1154.67 572.213 1143.65 572.268 C 1113.22 572.712 1110.77 574.183 1085.03 556.948 C 1074.73 527.229 1047.82 421.24 1044.19 415.918 z"/>
<path transform="translate(0,0)" fill="rgb(105,138,202)" d="M 1590.2 415.918 C 1593.57 411.066 1593.2 403.651 1594.08 397.993 C 1606.04 321.111 1634.8 312.789 1699.01 352.607 C 1709.22 358.938 1725.39 370.355 1728.26 382.697 C 1729.22 386.843 1729.85 467.981 1729.01 470.265 C 1744.97 477.905 1792.27 502.745 1804.58 512.874 C 1814.25 520.835 1808.52 535.607 1797.3 538.905 C 1781.78 543.466 1747.31 506.138 1729.35 507.564 C 1732.95 523.194 1804.32 541.886 1818.32 562.431 C 1828.6 577.513 1823.88 653.077 1823.89 674.182 C 1823.9 698.665 1831.74 733.833 1799.95 741.837 C 1795.72 743.153 1791 742.457 1786.71 741.837 C 1782.65 743.292 1702.69 741.84 1690.55 741.837 C 1693.06 736.83 1690.64 714.873 1690.6 708.223 L 1690.57 642.919 C 1690.6 635.514 1692.29 625.998 1690.55 618.979 C 1685 617.174 1675.83 618.692 1669.98 618.979 C 1658.16 618.262 1618.84 621.804 1610.89 616.938 C 1602.29 611.68 1611.28 584.526 1608.13 575.141 C 1613.18 567.382 1625.82 571.782 1633.75 572.268 C 1629.16 569.516 1628.49 555.464 1626.3 549.987 C 1626.41 548.218 1591.97 418.79 1590.2 415.918 z M 1738.13 595.992 C 1743.68 599.886 1747.76 609.858 1744.32 616.292 C 1737.2 622.308 1701.73 617.724 1690.55 618.979 C 1692.29 625.998 1690.6 635.514 1690.57 642.919 L 1690.6 708.223 C 1690.64 714.873 1693.06 736.83 1690.55 741.837 C 1702.69 741.84 1782.65 743.292 1786.71 741.837 C 1781.08 738.327 1774.39 734.499 1771.07 728.539 C 1751.66 693.755 1780.51 601.497 1738.13 595.992 z"/>
<path transform="translate(0,0)" fill="rgb(255,255,255)" d="M 1626.3 549.987 C 1650.14 571.919 1642.66 561.777 1663.19 572.268 C 1653.38 571.849 1643.57 572.088 1633.75 572.268 C 1629.16 569.516 1628.49 555.464 1626.3 549.987 z"/>
<path transform="translate(0,0)" fill="rgb(230,230,78)" d="M 1608.13 575.141 C 1613.18 567.382 1625.82 571.782 1633.75 572.268 C 1643.57 572.088 1653.38 571.849 1663.19 572.268 C 1684.86 571.976 1723.48 578.392 1738.13 595.992 C 1743.68 599.886 1747.76 609.858 1744.32 616.292 C 1737.2 622.308 1701.73 617.724 1690.55 618.979 C 1685 617.174 1675.83 618.692 1669.98 618.979 C 1658.16 618.262 1618.84 621.804 1610.89 616.938 C 1602.29 611.68 1611.28 584.526 1608.13 575.141 z"/>
<path transform="translate(0,0)" fill="rgb(195,206,188)" d="M 645.053 593.33 C 653.128 597.077 661.059 601.037 668.974 605.111 L 675.562 676.341 C 677.636 701.254 672.683 729.646 699.863 741.837 C 704.425 741.935 708.991 742.099 713.55 741.837 C 726.218 743.821 741.677 741.91 754.692 741.893 L 851.983 741.837 L 851.983 618.979 C 858.047 619.335 863.945 619.288 870.01 618.979 C 889.946 618.521 910.033 618.972 929.982 618.979 C 927.853 611.216 925.382 603.614 922.797 595.992 L 935.828 601.976 C 938.661 634.008 934.127 729.186 962.106 741.837 C 970.529 744.376 976.414 744.158 984.842 741.837 C 999.504 743.363 1015.68 741.883 1030.49 741.803 L 1118.68 741.837 C 1122.69 734.895 1118.79 719.386 1118.74 711.335 C 1118.67 701.05 1120.16 622.236 1118.68 618.979 C 1124.71 618.875 1130.97 618.442 1136.97 618.979 C 1155.43 618.039 1174.37 618.947 1192.89 618.979 C 1195.63 614.188 1193.3 601.585 1192.89 595.992 C 1196.37 597.265 1201.14 598.817 1203.41 601.976 C 1211.38 615.227 1205.03 704.758 1216.6 728.281 C 1219.7 734.585 1226.94 736.685 1230.8 741.837 C 1239.15 742.835 1246.56 743.764 1254.89 741.837 C 1260.73 745.527 1278.64 741.951 1285.96 741.905 L 1390.09 741.837 C 1392.75 736.535 1390.16 713.708 1390.13 706.253 C 1390.07 694.384 1391.67 623.774 1390.09 618.979 C 1396.36 617.902 1403.05 618.696 1409.38 618.979 C 1428.78 617.321 1472.16 630.609 1460.08 595.992 C 1465.14 596.711 1473.72 600.352 1476.18 605.111 C 1484.85 621.409 1479.74 708.696 1491.36 727.397 C 1496.36 735.436 1503.97 736.267 1509.63 741.837 C 1514.24 741.984 1519.15 742.487 1523.73 741.837 C 1533.1 744.091 1551.4 741.919 1561.92 741.895 L 1669.98 741.837 C 1673.53 735.306 1669.92 663.602 1670.03 649.62 C 1670.08 642.874 1672.57 624.223 1669.98 618.979 C 1675.83 618.692 1685 617.174 1690.55 618.979 C 1692.29 625.998 1690.6 635.514 1690.57 642.919 L 1690.6 708.223 C 1690.64 714.873 1693.06 736.83 1690.55 741.837 C 1702.69 741.84 1782.65 743.292 1786.71 741.837 C 1791 742.457 1795.72 743.153 1799.95 741.837 C 1814.54 743.228 1829.95 741.905 1844.65 741.878 L 1936.61 741.837 C 1939.23 747.466 1939.96 758.455 1936.61 764.039 L 1225.23 764.051 C 1195.88 764.052 1166.28 764.913 1136.97 764.039 C 1104.14 765.572 1070.52 764.043 1037.61 764.045 L 836.57 764.039 L 112.027 764.039 C 112.227 756.655 112.044 749.225 112.027 741.837 L 307.538 741.837 L 307.538 618.979 C 313.52 619.082 319.589 619.406 325.559 618.979 C 342.811 618.642 360.133 618.973 377.393 618.979 C 376.896 611.393 377.424 603.609 377.393 595.992 C 383.806 598.976 390.291 601.867 396.578 605.111 C 395.75 628.776 397.889 652.389 399.085 676.01 C 400.386 701.711 395.012 730.509 424.146 741.837 C 429.104 741.986 434.02 742.151 438.976 741.837 C 452.497 743.461 468.233 741.911 481.912 741.901 L 580.338 741.837 L 580.338 618.979 C 586.349 619.056 592.398 619.28 598.403 618.979 L 656.718 618.979 C 652.77 610.436 649.847 601.476 645.053 593.33 z M 645.053 593.33 C 649.847 601.476 652.77 610.436 656.718 618.979 L 598.403 618.979 C 598.402 659.848 597.376 701.008 598.403 741.837 C 611.087 741.848 695.066 743.338 699.863 741.837 C 672.683 729.646 677.636 701.254 675.562 676.341 L 668.974 605.111 C 661.059 601.037 653.128 597.077 645.053 593.33 z M 1460.08 595.992 C 1472.16 630.609 1428.78 617.321 1409.38 618.979 C 1406.82 623.083 1412.28 736.721 1409.38 741.837 C 1421.95 741.833 1506.15 743.282 1509.63 741.837 C 1503.97 736.267 1496.36 735.436 1491.36 727.397 C 1479.74 708.696 1484.85 621.409 1476.18 605.111 C 1473.72 600.352 1465.14 596.711 1460.08 595.992 z M 377.393 595.992 C 377.424 603.609 376.896 611.393 377.393 618.979 C 360.133 618.973 342.811 618.642 325.559 618.979 L 325.559 741.837 C 343.942 740.975 412.046 745.084 424.146 741.837 C 395.012 730.509 400.386 701.711 399.085 676.01 C 397.889 652.389 395.75 628.776 396.578 605.111 C 390.291 601.867 383.806 598.976 377.393 595.992 z M 1192.89 618.979 C 1174.37 618.947 1155.43 618.039 1136.97 618.979 C 1139.12 625.187 1136.93 700.42 1137.03 711.389 C 1137.1 719.565 1140.51 734.621 1136.97 741.837 C 1148.62 741.834 1227.78 743.393 1230.8 741.837 C 1226.94 736.685 1219.7 734.585 1216.6 728.281 C 1205.03 704.758 1211.38 615.227 1203.41 601.976 C 1201.14 598.817 1196.37 597.265 1192.89 595.992 C 1193.3 601.585 1195.63 614.188 1192.89 618.979 z M 922.797 595.992 C 925.382 603.614 927.853 611.216 929.982 618.979 C 910.033 618.972 889.946 618.521 870.01 618.979 L 870.01 741.837 L 928.624 741.957 C 939.567 742.065 951.308 743.301 962.106 741.837 C 934.127 729.186 938.661 634.008 935.828 601.976 L 922.797 595.992 z"/>
</svg>