<svg version="1.1" xmlns="http://www.w3.org/2000/svg" style="display: block;" viewBox="0 0 2048 1024" width="1024" height="512">
<path transform="translate(0,0)" fill="rgb(230,230,78)" d="M 1046.94 664.964 C 1054.39 668.242 1094.24 716.685 1095.71 724.935 C 1092.27 736.504 1098.09 748.819 1080.97 753.373 C 1054.07 760.528 1052.37 685.74 1046.94 664.964 z"/>
<path transform="translate(0,0)" fill="rgb(230,230,78)" d="M 951.721 724.935 C 960.448 711.14 989.188 675.273 1000.93 664.964 C 1000.11 675.916 992.149 787.81 957.437 746.087 C 951.767 739.271 955.235 731.601 951.721 724.935 z"/>
<path transform="translate(0,0)" fill="rgb(230,230,78)" d="M 1000.93 363.148 C 940.685 327.883 986.592 245.838 1045.16 271.568 C 1082.54 287.99 1086.63 348.099 1046.94 363.148 C 1092.94 369.412 1134.3 425.137 1144.16 466.711 C 1147.43 480.5 1156.01 575.272 1116.94 547.983 C 1093.64 531.711 1124.45 472.894 1089.68 451.739 C 1093.77 461.866 1095.91 496.938 1089.68 506.684 C 1090.92 496.39 1074.9 467.801 1067.16 463.918 C 1067.22 446.047 1069.15 425.424 1055.23 411.701 C 1038.18 394.88 1005.28 394.421 988.753 412.254 C 971.569 430.797 982.877 446.804 978.448 463.918 C 969.674 470.161 959.393 496.159 954.381 506.684 C 953.123 501.6 953.777 458.834 954.381 451.739 C 948.868 460.896 941.373 473.645 939.389 484.263 C 937.474 494.517 947.721 586.477 903.152 541.195 C 897.462 464.917 918.144 384.269 1000.93 363.148 z"/>
<path transform="translate(0,0)" fill="rgb(225,101,86)" d="M 978.448 463.918 C 982.877 446.804 971.569 430.797 988.753 412.254 C 1005.28 394.421 1038.18 394.88 1055.23 411.701 C 1069.15 425.424 1067.22 446.047 1067.16 463.918 C 1074.9 467.801 1090.92 496.39 1089.68 506.684 C 1097.61 518.4 1090.35 543.153 1081.9 552.979 C 1086.4 557.402 1089.57 597.589 1091.31 606.447 L 1089.68 609.063 C 1099.04 616.901 1153.04 685.89 1153.25 687.399 C 1151.67 695.866 1117.32 737.159 1108.14 741.044 C 1107.48 735.623 1100.44 727.721 1095.71 724.935 C 1094.24 716.685 1054.39 668.242 1046.94 664.964 C 1046.24 658.428 1035.23 647.044 1030.61 642.246 C 1029.25 638.583 1026.43 635.564 1024 632.552 C 1016.32 642.568 1006.04 653.514 1000.93 664.964 C 989.188 675.273 960.448 711.14 951.721 724.935 C 947.166 729.536 942.953 734.101 939.065 739.285 C 925.397 721.539 910.787 703.992 895.743 687.399 C 912.409 666.423 942.085 638.334 954.381 615.817 C 954.345 604.726 961.27 564.737 964.146 552.979 C 955.998 538.439 954.962 522.868 954.381 506.684 C 959.393 496.159 969.674 470.161 978.448 463.918 z"/>
<path transform="translate(0,0)" fill="rgb(230,230,78)" d="M 1081.9 552.979 C 1086.4 557.402 1089.57 597.589 1091.31 606.447 L 1089.68 609.063 C 1086.61 604.19 1069.05 585.503 1063.99 583.02 L 1063.99 583.02 C 1069.13 572.806 1078.15 563.706 1081.9 552.979 z"/>
<path transform="translate(0,0)" fill="rgb(230,230,78)" d="M 964.146 552.979 L 984.258 583.02 C 974.182 593.599 965.306 606.254 954.381 615.817 C 954.345 604.726 961.27 564.737 964.146 552.979 z"/>
<path transform="translate(0,0)" fill="rgb(230,230,78)" d="M 984.258 463.918 C 992.2 444.324 1054.26 442.739 1063.99 463.918 C 1067.42 476.708 1032.58 523.551 1024 531.499 C 1009.25 510.01 988.861 490.421 984.258 463.918 z"/>
<path transform="translate(0,0)" fill="rgb(105,138,202)" d="M 514.196 266.499 C 570.048 264.781 592.31 330.631 541.687 363.148 L 547.214 364.763 C 609.823 383.363 638.004 450.856 638.162 511.404 C 638.196 524.136 640.558 544.195 626.585 551.097 C 592.848 567.762 602.461 493.815 600.616 483.41 C 598.466 471.289 591.751 459.568 586.419 448.627 C 586.426 485.268 584.237 524.768 584.886 560.588 C 585.263 581.429 597.672 734.354 591.216 744.483 C 584.06 755.712 570.787 753.491 561.149 747.057 C 552.49 732.932 527.147 602.919 522.659 578.498 C 515.195 576.832 513.5 601.839 512.39 606.979 L 493.769 693.512 C 490.396 709.857 489.057 761.837 460.857 752.084 C 453.99 749.709 451.238 745.584 448.118 739.285 C 445.929 719.791 448.273 698.766 449.109 679.157 L 454.542 562.422 C 455.878 527.662 452.918 484.68 452.95 448.627 C 448.193 458.282 441.757 469.103 439.633 479.663 C 437.676 489.392 447.951 568.458 413.927 550.745 C 397.787 542.343 401.338 525.113 401.176 509.79 C 400.477 443.314 427.814 383.017 495.592 363.148 C 449.196 336.128 462.972 273.143 514.196 266.499 z"/>
<path transform="translate(0,0)" fill="rgb(230,230,78)" d="M 1522.41 266.499 C 1583.19 260.13 1603.85 339.239 1550.39 363.148 C 1626.73 375.104 1655.7 465.746 1646.84 533.979 C 1643.51 559.599 1625.14 552.988 1610.93 541.195 C 1615.06 526.298 1614.41 462.673 1593.79 451.739 C 1597.7 462.906 1593.04 534.815 1593.1 553.052 C 1593.22 590.239 1604.13 729.3 1598.35 741.044 C 1599.58 750.312 1585.31 754.069 1578.64 753.502 C 1550.07 751.07 1545.08 596.562 1529.69 578.498 L 1528.41 577.599 C 1523.71 577.768 1522.1 597.866 1506.81 671.556 C 1502.35 693.063 1495.16 788.815 1456.18 741.044 C 1457.15 731.571 1455.7 718.749 1456.08 708.55 L 1460.62 598.6 C 1461.48 579.849 1464.13 460.288 1459.54 451.739 C 1457.39 462.097 1447.86 469.725 1445.99 480.717 C 1442.85 499.178 1448.52 519.372 1444.6 537.476 C 1441.07 553.796 1419.64 556.974 1411.69 541.766 C 1407.2 533.172 1408.08 487.246 1409.24 476.097 C 1413.23 437.849 1445.13 390.421 1477.96 372.384 C 1486.19 367.862 1496.02 367.608 1504.25 363.148 C 1492.17 350.001 1482.51 349.036 1478.09 327.806 C 1471.77 297.429 1493.22 271.82 1522.41 266.499 z"/>
<path transform="translate(0,0)" fill="rgb(155,155,155)" d="M 1278.87 266.499 C 1332.94 263.556 1351.29 341.485 1300 363.148 C 1346.15 368.633 1390.96 429.429 1397.31 471.376 C 1399.32 484.642 1406 579.82 1367.42 546.455 C 1348.23 529.856 1374.52 473.914 1345.04 451.739 C 1347.47 458.044 1343.91 540.059 1344 553.921 C 1344.16 579.068 1355.67 730.298 1351.59 741.044 C 1350.12 747.098 1343.29 752.589 1337.3 753.224 C 1313.08 755.793 1313.17 725.017 1309.5 708.459 L 1289.71 618.311 C 1287.56 608.642 1286.79 584.898 1278.87 578.498 C 1274.13 583.359 1249.49 719.775 1243.63 737.556 C 1234.83 764.275 1220.34 753.473 1206.32 741.465 L 1205.82 741.044 C 1210.67 731.318 1207.44 710.534 1207.87 699.354 C 1209.21 664.266 1218.34 471.085 1209.99 451.739 C 1209.56 460.253 1197.77 471.276 1195.96 481.262 C 1192.57 500.016 1200.87 523.389 1193.69 541.148 C 1186.87 558.012 1165.18 553.987 1159.43 537.972 C 1156.4 529.503 1157.65 479.089 1159.89 468.955 C 1171.63 415.96 1207.15 380.033 1256.53 363.148 C 1256.15 362.557 1255.82 362.15 1255.22 361.768 C 1210.9 333.4 1223.58 270.607 1278.87 266.499 z"/>
<path transform="translate(0,0)" fill="rgb(155,155,155)" d="M 258.338 266.499 C 321.83 262.632 345.079 328.317 291.422 363.148 C 321.803 370.41 341.688 386.922 359.382 412.541 C 385.116 449.801 396.05 493.86 387.194 538.729 C 383.734 556.263 358.173 555.953 352.559 539.859 C 341.631 508.528 364.762 494.514 334.995 448.627 C 334.96 519.646 335.547 589.294 340.564 660.173 C 342.069 681.431 362.371 778.149 311.241 747.057 C 308.275 736.077 306.277 724.876 303.6 713.826 L 286.104 644.502 C 281.606 626.253 277.726 607.859 272.605 589.768 C 271.979 585.918 271.679 578.986 267.131 577.649 C 257.264 593.187 243.678 730.166 228.469 746.264 C 221.862 753.256 209.087 755.165 201.865 747.889 C 190.888 736.828 196.359 707.874 196.92 693.917 L 199.499 628.907 C 201.698 568.658 202.629 508.931 202.513 448.627 C 179.689 481.866 185.498 503.049 185.134 541.195 C 158.853 576.562 148.773 533.297 148.939 508.369 C 149.356 445.515 180.568 377.57 246.887 363.148 C 202.826 338.516 208.129 281.819 258.338 266.499 z"/>
<path transform="translate(0,0)" fill="rgb(155,155,155)" d="M 1768.45 266.499 C 1835.86 258.024 1856.6 345.389 1799.99 363.148 C 1848.9 371.852 1889.5 425.401 1897.78 472.518 C 1898.98 479.341 1900.78 534.259 1898.99 538.323 C 1897.23 556.677 1872.85 551.395 1860.96 541.195 C 1865.51 526.464 1862.45 464.713 1846.09 451.739 C 1851.21 473.308 1845.48 577.75 1846.37 607.663 L 1849.09 702.969 C 1849.39 714.818 1852.4 731.01 1849.22 742.206 C 1845.82 754.151 1825.17 758.665 1818.64 747.224 C 1802.48 718.888 1795.85 606.94 1781.64 583.02 C 1782.38 580.252 1781.99 578.89 1780.67 576.364 L 1779.23 576.369 C 1768.65 586.437 1749.21 735.844 1741.34 745.363 C 1727.57 762.017 1718.32 752.073 1706.34 741.469 L 1705.85 741.044 C 1711.92 728.628 1715.8 467.017 1709.95 451.739 C 1710.35 459.767 1698.9 470.223 1696.7 478.889 C 1691.9 497.81 1700.42 520.398 1694.91 539.22 C 1690.26 555.115 1668.26 555.771 1661.49 541.388 C 1656.74 531.319 1658.11 485.528 1659.96 473.119 C 1665.65 434.726 1696.41 391.368 1729.72 373.142 C 1737.49 368.89 1746.25 367.054 1754.26 363.395 L 1754.78 363.148 C 1717.78 329.034 1713.67 286.01 1768.45 266.499 z"/>
<path transform="translate(0,0)" fill="rgb(155,155,155)" d="M 757.427 266.499 C 823.996 263.285 843.133 332.68 791.465 363.148 C 841.337 371.404 882.853 429.696 888.765 476.856 C 890.994 494.646 889.085 519.756 889.014 538.323 C 884.559 546.835 876.518 553.752 866.166 551.335 C 844.081 546.177 855.393 497.463 851.721 480.544 C 849.496 470.294 842.604 460.447 837.023 451.739 C 836.505 518.097 838.11 584.212 839.086 650.535 C 839.526 680.403 842.769 711.345 839.58 741.044 C 835.301 751.262 823.27 759.188 812.626 751.893 C 798.841 742.445 776.94 610.843 772.606 589.768 C 772.178 586.235 772.12 582.48 769.943 579.523 L 767.967 579.489 C 758.932 587.077 743.216 730.233 726.785 748.683 C 720.966 755.216 709.912 756.995 703.348 750.585 C 688.877 736.455 697.397 687.437 698.327 669.011 L 702.879 567.476 C 703.483 553.455 702.373 539.517 702.228 525.501 L 702.163 451.739 C 677.172 494.82 693.805 523.849 684.816 540.817 C 676.077 557.316 657.192 554.905 651.966 536.72 C 649.644 528.639 650.495 519.199 650.516 510.829 C 650.687 444.029 678.497 383.507 746.68 363.148 C 701.68 339.696 709.855 283.246 757.427 266.499 z"/>
</svg>