<svg version="1.1" xmlns="http://www.w3.org/2000/svg" style="display: block;" viewBox="0 0 2048 1538" width="682" height="512">
<path transform="translate(0,0)" fill="rgb(117,199,179)" d="M 1550.67 748.468 L 1585.58 748.468 C 1592.07 753.995 1598.46 767.088 1597.99 775.455 C 1597.61 778.46 1588.18 790.945 1585.58 793.368 C 1590.96 807.769 1591.04 875.731 1597.99 902.082 C 1597.74 910.773 1570.99 993.499 1565.52 999.309 C 1566.18 992.647 1549.71 943.104 1547.03 933.446 C 1545.85 929.226 1543.02 911.053 1541.8 909.49 C 1545 904.135 1552.97 798.173 1550.67 793.368 L 1550.92 791.625 C 1548.83 784.956 1542.68 780.16 1537.77 775.455 C 1540.85 768.179 1549.34 754.688 1550.67 748.468 z"/>
<path transform="translate(0,0)" fill="rgb(129,183,103)" d="M 471.504 793.368 C 465.356 785.656 456.232 776.577 457.478 765.941 C 461.634 730.46 547.652 747.157 504.756 790.681 C 510.218 822.066 508.751 876.089 516.415 902.082 C 511.954 927.731 502.389 952.487 498.238 978.187 C 494.064 980.201 489.938 981.057 485.328 980.355 L 482.832 978.187 C 476.066 961.948 464.602 919.756 461.625 902.082 C 461.929 882.839 465.696 808.435 471.504 793.368 z"/>
<path transform="translate(0,0)" fill="rgb(225,101,86)" d="M 974.101 775.455 C 999.892 750.071 1047.51 746.911 1072.54 775.455 C 1061.66 789.354 1050 803.208 1040.44 818.057 C 1052.9 871.009 1061.95 937.228 1069.4 991.069 C 1067.66 1008 1061.96 1025.26 1057.73 1041.71 L 1039.79 1111.79 C 1034.25 1132.81 1028.12 1153.43 1024.58 1174.92 C 1007.98 1123.79 987.178 1045.22 977.117 991.069 C 984.613 939.53 1003.39 867.685 1005.35 818.057 C 996.239 802.908 983.704 790.227 974.101 775.455 z"/>
<path transform="translate(0,0)" fill="rgb(155,155,155)" d="M 471.504 423.629 C 573.342 423.416 588.35 471.724 588.053 561.594 C 600.894 569.766 600.492 618.999 574.848 625.174 C 569.175 660.008 549.597 675.56 555.191 712.967 C 539.576 723.262 523.061 726.767 504.756 727.874 C 476.906 728.012 443.878 731.676 421.025 712.967 C 420.122 679.853 402.885 658.923 394.909 625.174 C 372.948 621.672 372.658 583.928 373.167 566.77 L 381.845 561.594 C 380.761 487.626 386.801 438.734 471.504 423.629 z M 461.625 659.242 C 471.745 675.502 492.118 674.821 507.315 666.238 C 509.311 664.436 511.368 662.976 512.154 660.299 L 511.582 659.424 L 511.799 660.452 L 511.275 660.782 L 510.009 659.134 C 494.027 658.597 477.609 658.683 461.625 659.242 z"/>
<path transform="translate(0,0)" fill="rgb(155,155,155)" d="M 1550.67 423.629 C 1592.36 419.006 1634.09 434.163 1655.33 472.518 C 1664.49 489.05 1675.64 542.675 1670.22 561.594 C 1673.55 564.667 1675.33 567.241 1675.54 571.849 C 1681.29 583.042 1673.19 616.772 1665.84 625.174 C 1664.43 628.551 1659.99 630.268 1656.87 631.804 C 1658.3 643.245 1638.04 668.426 1634.28 680.219 C 1631.66 688.417 1635.88 698.078 1632.95 705.55 C 1627.02 723.319 1593.9 734.974 1577.24 736.333 C 1551.15 744.009 1517.84 722.673 1500.27 705.55 C 1501.92 674.304 1487.09 660.229 1475.75 631.804 C 1455.36 623.008 1446.39 577.539 1463.95 561.594 C 1463.67 493.875 1473.47 439.46 1550.67 423.629 z M 1541.8 659.242 C 1539.95 678.94 1575.61 682.115 1585.58 670.494 C 1588.34 668.892 1590.78 667.37 1593.09 665.157 L 1593.43 663.727 C 1585.49 657.649 1571.1 665.544 1561.85 664.336 C 1554.98 663.439 1548.94 658.343 1541.8 659.242 z"/>
<path transform="translate(0,0)" fill="rgb(230,230,78)" d="M 877.651 488.725 C 869.256 428.411 872.562 372.418 922.955 330.17 C 971.423 289.535 1055.51 284.794 1105.47 326.097 C 1171.64 380.798 1172.57 401.165 1163.3 488.725 C 1190.51 499.402 1177.02 564.655 1145.66 581.94 C 1135.37 614.637 1122.64 635.89 1107.09 666.238 C 1142.36 703.037 1045.86 739.663 1016.12 737.599 C 987.406 735.607 942.261 716.614 931.087 687.21 C 931.969 677.181 935.311 668.549 938.854 659.242 C 918.967 637.405 908.01 609.215 897.76 581.94 C 867.075 564.677 858.879 492.578 877.651 488.725 z M 991.264 631.804 C 981.39 651.849 1026.41 661.652 1045.03 646.142 C 1047.69 642.997 1049.42 640.469 1050.94 636.578 L 1050.72 634.054 C 1043.52 629.914 1034.11 636.352 1026.82 637.569 C 1013.74 639.751 1003.63 631.552 991.264 631.804 z"/>
<path transform="translate(0,0)" fill="rgb(155,155,155)" d="M 877.651 488.725 C 869.256 428.411 872.562 372.418 922.955 330.17 C 971.423 289.535 1055.51 284.794 1105.47 326.097 C 1171.64 380.798 1172.57 401.165 1163.3 488.725 C 1158.14 517.431 1166.49 544.116 1135.92 528.88 C 1135.44 515.506 1135.88 502.105 1135.92 488.725 C 1120.65 464.699 1108.29 444.566 1103.4 415.963 C 1097.67 382.395 1071.3 408.773 1041.29 418.219 C 1004.11 429.926 968.839 426.143 931.087 418.111 C 924.465 459.016 923.752 454.116 905.136 485.586 C 904.804 502.383 906.565 519.263 905.136 535.995 C 875.166 538.913 885.727 517.356 877.651 488.725 z"/>
<path transform="translate(0,0)" fill="rgb(225,101,86)" d="M 570.784 712.967 C 605.393 730.26 657.021 752.664 694.027 764.052 C 643.741 812.048 638.171 847.668 638.21 913.433 L 638.24 1123.95 L 361.884 1123.92 C 347.496 1123.81 333.13 1123.08 318.752 1123.95 C 317.102 1080.47 323.847 1010.66 315.103 970.656 C 314.263 1020.29 302.682 1076.19 304.697 1123.95 C 279.545 1123.09 254.118 1123.88 228.935 1123.95 C 226.266 1080.74 230.743 1032.79 231.783 989.039 L 235.065 878.913 C 236.151 842.691 231.204 798.299 265.135 774.159 C 284.324 760.507 377.971 727.296 406.408 716.597 C 412.016 745.517 422.577 774.278 430.803 802.618 L 448.236 862.613 C 452.064 875.658 455.178 890.087 461.625 902.082 C 464.602 919.756 476.066 961.948 482.832 978.187 L 485.328 980.355 C 489.938 981.057 494.064 980.201 498.238 978.187 C 502.389 952.487 511.954 927.731 516.415 902.082 C 531.2 869.286 535.956 793.472 549.652 770.365 C 561.996 764.692 567.329 726.182 570.784 712.967 z M 482.832 978.187 C 488.503 1001.24 492.82 1001.12 498.238 978.187 C 494.064 980.201 489.938 981.057 485.328 980.355 L 482.832 978.187 z"/>
<path transform="translate(0,0)" fill="rgb(155,155,155)" d="M 1352.23 770.727 C 1370.69 752.315 1456.57 726.399 1487.6 712.967 C 1492.52 735.819 1499.14 758.342 1505.22 780.904 L 1529.07 870.193 C 1531.7 879.878 1540.79 902.481 1541.8 909.49 C 1543.02 911.053 1545.85 929.226 1547.03 933.446 C 1549.71 943.104 1566.18 992.647 1565.52 999.309 C 1570.99 993.499 1597.74 910.773 1597.99 902.082 C 1606.75 886.029 1649.32 719.048 1648.77 716.597 C 1673.06 723.967 1760.8 756.044 1775.92 765.815 C 1813.6 790.171 1811.81 828.615 1813.12 867.88 L 1820.84 1077.42 C 1821.26 1089.14 1826.57 1113.96 1820.43 1123.95 L 1741.21 1123.95 C 1744.68 1116.78 1739.05 997.32 1733.8 977.265 C 1726.45 1005.85 1732.36 1111.71 1724.27 1123.95 L 1411.38 1123.95 L 1411.41 966.327 C 1411.41 891.294 1417.95 823.581 1352.23 770.727 z"/>
<path transform="translate(0,0)" fill="rgb(105,138,202)" d="M 1145.66 707.67 C 1176.98 717.877 1207.99 730.096 1238.99 741.308 C 1311.7 767.6 1364.69 785.85 1381.99 875.543 C 1385.63 894.392 1383.32 913.869 1383.2 932.932 L 1385.19 1311.96 L 1275.04 1311.96 L 1275 1152.08 C 1274.97 1139.54 1279.07 1081.3 1272.44 1073.65 C 1268.85 1069.5 1267.2 1076.47 1266.99 1079.13 C 1264.87 1106.19 1266.35 1134.24 1266.36 1161.43 L 1266.36 1311.96 C 1212.99 1313.16 1159.29 1311.98 1105.89 1311.98 L 784.49 1311.96 L 784.482 1154.16 C 784.46 1141.45 788.483 1084.48 782.566 1076.47 C 774.267 1065.24 777.427 1117.46 777.149 1128.36 C 775.629 1188.05 772.414 1252.5 772.944 1311.96 L 670.692 1311.96 C 669.111 1283.6 670.676 1254.26 670.683 1225.79 L 670.667 933.731 C 670.671 870.445 667.354 812.035 732.286 775.844 C 752.935 764.335 882.956 715.526 905.136 712.967 C 907.441 726.137 918.693 778.633 923.482 788.357 C 926.013 789.897 930.203 788.585 931.508 790.217 C 938.68 799.193 964.607 955.546 977.117 991.069 C 987.178 1045.22 1007.98 1123.79 1024.58 1174.92 C 1028.12 1153.43 1034.25 1132.81 1039.79 1111.79 L 1057.73 1041.71 C 1061.96 1025.26 1067.66 1008 1069.4 991.069 C 1079.43 974.723 1110.23 818.118 1117.05 790.681 C 1117.73 790.325 1124.17 791.233 1125.65 791.209 C 1129.54 788.299 1142.32 719.439 1145.66 707.67 z"/>
</svg>