<svg version="1.1" xmlns="http://www.w3.org/2000/svg" style="display: block;" viewBox="0 0 2048 2048" width="512" height="512">
<path transform="translate(0,0)" fill="rgb(117,199,179)" d="M 516.129 708.916 C 499.436 699.275 464.651 689.729 457.493 670.227 C 451.48 653.842 459.477 630.547 477.177 625.239 C 495.524 619.736 528.77 643.937 544.808 653.169 C 532.474 670.608 526.499 690.585 516.129 708.916 z"/>
<path transform="translate(0,0)" fill="rgb(117,199,179)" d="M 1480.65 648.351 C 1521.5 597.302 1609.72 636.88 1564.61 683.039 C 1551.91 696.038 1527.97 697.3 1510.94 701.286 C 1502.89 681.604 1493.71 665.173 1480.65 648.351 z"/>
<path transform="translate(0,0)" fill="rgb(225,101,86)" d="M 990.138 550.474 C 1017.16 523.681 1023.69 533.963 1052.73 550.474 C 1046.38 555.998 1039.57 560.634 1032.59 565.327 C 1042.17 588.403 1046.38 615.716 1052.73 639.955 C 1044.14 673.733 1030.17 705.646 1020.86 739.127 C 1013.26 722.625 992.294 665.061 990.138 648.351 C 994.133 620.49 1001.08 592.56 1008.15 565.327 C 1001.34 560.877 995.84 556.238 990.138 550.474 z"/>
<path transform="translate(0,0)" fill="rgb(225,101,86)" d="M 1364.68 258.053 C 1382.59 258.464 1433.64 333.227 1431.17 340.102 C 1427.73 349.695 1361.97 398.446 1350.63 403.218 C 1331.38 406.531 1282.9 326.298 1285.68 319.852 C 1289.43 311.181 1354.09 262.773 1364.68 258.053 z"/>
<path transform="translate(0,0)" fill="rgb(225,101,86)" d="M 681.82 413.2 C 702.827 410.494 751.698 464.931 760.892 478.617 C 771.631 494.605 702.515 560.503 694.818 565.327 C 675.046 562.775 612.55 495.399 614.04 486.42 C 615.541 477.38 673.068 418.393 681.82 413.2 z"/>
<path transform="translate(0,0)" fill="rgb(117,199,179)" d="M 1016.64 295.068 C 1053.89 293.493 1091.64 312.328 1096.7 352.722 C 1097.81 361.589 1098.04 370.606 1100.33 379.289 C 1133.39 405.599 1108.71 410.057 1092.4 428.975 C 1074.43 449.814 1078.3 454.792 1049.02 481.288 C 1048.83 497.728 1052.21 499.876 1066.98 507.249 C 1054.56 513.12 1032.28 527.831 1020.86 531.116 C 1001.62 527.088 984.6 512.944 964.623 507.249 C 971.871 505.57 978.045 501.843 984.504 498.289 C 989.008 472.889 972.745 472.332 960.123 453.991 C 954.887 446.383 951.534 437.203 945.56 430.117 C 929.865 411.501 906.325 404.82 938.274 379.289 C 942.938 329.15 960.657 295.353 1016.64 295.068 z"/>
<path transform="translate(0,0)" fill="rgb(117,199,179)" d="M 520.535 878.075 C 659.848 862.712 703.296 1107.97 527.251 1118.24 C 368.222 1126.15 359.414 882.212 520.535 878.075 z"/>
<path transform="translate(0,0)" fill="rgb(254,254,254)" d="M 516.129 932.527 C 521.74 934.284 524.386 938.767 527.251 943.524 C 553.07 947.285 583.557 974.888 547.768 977.205 C 541.165 969.746 536.634 965.813 527.251 962.297 C 527.932 971.834 530.616 981.408 533.095 990.606 C 584.661 998.552 590.771 1040.28 544.808 1059.64 L 547.768 1072.85 C 542.528 1073.08 534.861 1075.47 530.4 1072.85 L 530.088 1066.25 C 524.341 1060.77 485.406 1056.03 486.837 1032.86 C 487.489 1022.31 501.57 1023.98 508.953 1023.96 C 511.498 1031.32 515.671 1047.05 525.871 1047.29 L 527.604 1044.42 L 527.708 1045.1 L 520.535 1011.37 C 435.282 990.778 505.969 947.495 507.538 944.149 C 505.624 936.038 508.88 935.057 516.129 932.527 z"/>
<path transform="translate(0,0)" fill="rgb(117,199,179)" d="M 508.953 962.297 C 514.704 963.986 517.234 983.551 517.721 989.147 L 516.129 990.606 C 501.63 984.194 497.153 973.795 508.953 962.297 z"/>
<path transform="translate(0,0)" fill="rgb(117,199,179)" d="M 536.923 1011.37 C 553.285 1016.92 555.599 1026.19 547.768 1040.95 C 536.391 1044.8 537.033 1020.57 536.923 1011.37 z"/>
<path transform="translate(0,0)" fill="rgb(117,199,179)" d="M 1540.92 838.355 C 1705.04 820.447 1731.15 1066.45 1574.02 1081.99 C 1410.81 1102.32 1379.46 858.162 1540.92 838.355 z"/>
<path transform="translate(0,0)" fill="rgb(254,254,254)" d="M 1553.98 888.621 C 1563.5 890.949 1564.87 891.179 1566.39 901.144 C 1576.44 914.363 1592.86 899.757 1604.55 932.527 C 1588.01 952.631 1584.23 929.412 1569.9 927.007 L 1567.91 928.647 C 1565.22 935.972 1566.04 943.47 1566.28 951.138 C 1620.47 962.115 1619.24 1011.77 1566.28 1027.02 C 1566.2 1033.41 1568.58 1038.21 1561.86 1040.95 C 1548.51 1041.35 1550.43 1038.49 1546.83 1027.02 C 1526.17 1022.1 1493.7 990.536 1514.33 983.869 C 1525.88 980.138 1537.45 998.161 1546.83 1003.03 L 1546.83 974.078 C 1531.59 969.246 1513 959.472 1511.91 941.338 C 1510.03 910.143 1542.42 909.521 1547.23 903.869 C 1548.85 901.96 1548.61 894.585 1553.98 888.621 z"/>
<path transform="translate(0,0)" fill="rgb(117,199,179)" d="M 1540.92 927.796 C 1551.31 927.838 1549.01 946.691 1540.92 948.039 C 1533.48 941.549 1533.13 934.165 1540.92 927.796 z"/>
<path transform="translate(0,0)" fill="rgb(117,199,179)" d="M 1566.28 977.205 C 1578.46 979.745 1589.79 986.265 1578.95 998.179 C 1574.94 1000.17 1570.49 1001.5 1566.28 1003.03 C 1566.18 994.419 1566.25 985.811 1566.28 977.205 z"/>
<path transform="translate(0,0)" fill="rgb(155,155,155)" d="M 1212.97 1571.88 L 1266.61 1533.82 C 1284.08 1521.24 1302.24 1506.96 1321.99 1498.2 C 1303.75 1574.77 1297.65 1701.8 1289.81 1781.96 C 1229.38 1783.16 1168.7 1781.96 1108.24 1781.96 L 745.251 1781.96 C 741.014 1732.43 733.852 1647.2 722.44 1598.75 C 737.08 1609.63 752.846 1618.79 768.035 1628.85 L 852.418 1685.95 C 862.121 1674.69 869.12 1663.41 875.871 1650.23 C 879.833 1646.53 919.37 1645.99 926.97 1645.73 C 929.035 1649.97 930.811 1653.66 931.357 1658.42 L 932.166 1661.41 L 933.412 1661.71 C 957.616 1644.31 984.951 1630.19 1008.15 1611.76 C 1012.07 1582.32 1007.46 1549.22 1008.15 1519.06 L 1076.47 1559.05 C 1087.36 1565.4 1098.64 1573.24 1110.23 1578.06 C 1125.44 1589.9 1143.56 1598.5 1159.93 1608.75 C 1178.63 1599.39 1196.93 1585.25 1212.97 1571.88 z"/>
<path transform="translate(0,0)" fill="rgb(86,99,102)" d="M 875.871 1650.23 C 879.833 1646.53 919.37 1645.99 926.97 1645.73 C 929.035 1649.97 930.811 1653.66 931.357 1658.42 C 926.722 1686 815.753 1759.53 852.418 1685.95 C 862.121 1674.69 869.12 1663.41 875.871 1650.23 z"/>
<path transform="translate(0,0)" fill="rgb(230,230,78)" d="M 1520.72 1258.04 C 1543.72 1260.17 1568.83 1258.42 1591.93 1258.04 L 1591.93 1286.53 C 1651.79 1294.04 1745.29 1371.1 1707.06 1427.28 C 1692.12 1449.23 1665.02 1457.24 1640.66 1446.44 C 1605.54 1430.87 1610.24 1394.09 1583.36 1375.99 C 1545.59 1350.58 1509.24 1390.61 1519.87 1428.82 C 1537.49 1492.17 1677.12 1442.67 1713.06 1572.36 C 1737.75 1661.45 1683.29 1725.27 1599.53 1747.77 L 1599.53 1781.96 C 1573.39 1782.96 1546.9 1782.01 1520.72 1781.96 L 1520.72 1747.77 C 1468.53 1738.34 1422.31 1703.66 1405.41 1652.33 C 1376.42 1564.3 1478.17 1557.43 1503.72 1597.49 C 1520.66 1624.06 1521.25 1668.04 1571.8 1654.84 C 1597.03 1648.25 1606.63 1623.86 1599.38 1599.95 C 1588.33 1563.53 1552.66 1563.42 1522.2 1556.6 C 1370.68 1522.64 1356.02 1334.82 1520.72 1286.53 C 1518.94 1277.26 1518.26 1267.25 1520.72 1258.04 z"/>
<path transform="translate(0,0)" fill="rgb(230,230,78)" d="M 451.986 1258.04 C 477.05 1257.61 502.18 1258 527.251 1258.04 L 527.251 1286.53 C 578.52 1292.52 632.159 1335.75 646.198 1385.2 C 654.126 1413.13 628.843 1443.13 602.529 1449.51 C 531.003 1466.85 546.817 1354.44 473.638 1376.48 C 451.649 1383.11 438.364 1413.05 445.182 1434.29 C 466.403 1500.42 608.618 1439.55 647.234 1570.48 C 674.378 1662.52 618.47 1723.07 533.095 1747.77 L 533.095 1781.96 C 527.424 1782.22 521.801 1782.1 516.129 1781.96 C 494.753 1781.93 473.357 1782.4 451.986 1781.96 L 451.986 1747.77 C 426.262 1744.68 400.806 1734.47 380.163 1718.73 C 352.249 1697.44 303.463 1635.95 333.287 1599.57 C 344.476 1585.93 365.501 1575.49 382.931 1573.73 C 431.851 1568.82 434.668 1630.92 464.111 1653.34 C 499.345 1680.17 550.663 1644.93 542.158 1602.98 C 533.151 1558.56 474.766 1561.91 440.706 1554.08 C 300.72 1521.87 292.335 1317.52 451.986 1286.53 C 450.565 1276.54 450.727 1268.08 451.986 1258.04 z"/>
<path transform="translate(0,0)" fill="rgb(225,101,86)" d="M 867.475 1045.12 C 886.201 1049.64 910.769 1037.13 928.125 1031.34 L 989.464 1011.53 C 999.801 1008.25 1011.45 1003.44 1022.33 1003.02 C 1056.93 1001.72 1149.48 1047.74 1177.04 1045.12 C 1181.75 1075.38 1181.9 1106.99 1183.89 1137.57 L 1208.7 1509.33 C 1209.92 1529.24 1213.85 1552.38 1212.97 1571.88 C 1196.93 1585.25 1178.63 1599.39 1159.93 1608.75 C 1143.56 1598.5 1125.44 1589.9 1110.23 1578.06 C 1098.64 1573.24 1087.36 1565.4 1076.47 1559.05 L 1008.15 1519.06 C 1007.46 1549.22 1012.07 1582.32 1008.15 1611.76 C 984.951 1630.19 957.616 1644.31 933.412 1661.71 L 932.166 1661.41 L 931.357 1658.42 C 930.811 1653.66 929.035 1649.97 926.97 1645.73 C 919.37 1645.99 879.833 1646.53 875.871 1650.23 C 827.795 1645.23 837.63 1620.62 831.175 1578.79 L 819.878 1509.98 C 810.859 1455.77 800.409 1401.09 794.014 1346.52 C 790.417 1315.83 797.971 1292.26 807.291 1263.1 C 830.953 1189.09 846.098 1117.21 867.475 1045.12 z M 1026.51 1101.28 C 998.12 1119.65 928.477 1295.6 921.972 1326.16 C 916.15 1353.5 924.987 1407.37 927.922 1437.17 L 941.09 1570.11 C 944.823 1608.31 955.458 1618.31 926.97 1645.73 C 929.035 1649.97 930.811 1653.66 931.357 1658.42 L 932.166 1661.41 L 933.412 1661.71 C 957.616 1644.31 984.951 1630.19 1008.15 1611.76 C 1012.07 1582.32 1007.46 1549.22 1008.15 1519.06 L 1076.47 1559.05 C 1087.36 1565.4 1098.64 1573.24 1110.23 1578.06 C 1106.45 1559.92 1104.75 1541.23 1102.08 1522.9 C 1094.13 1468.3 1053.67 1136.32 1026.51 1101.28 z"/>
<path transform="translate(0,0)" fill="rgb(105,138,202)" d="M 1095.96 520.156 C 1198.65 552.63 1250.67 653.623 1321.99 722.654 C 1353.83 702.167 1417.51 655.798 1451 642.713 C 1464.68 637.364 1468.66 645.019 1480.65 648.351 C 1493.71 665.173 1502.89 681.604 1510.94 701.286 C 1511.41 709.696 1511.17 719.563 1505.42 726.337 C 1493.81 740.008 1395.1 788.986 1372.08 801.032 C 1339.21 818.231 1309.41 841.854 1275.65 809.45 C 1249.62 784.463 1223.86 752.825 1198.93 726.094 C 1198.76 749.177 1200.78 772.265 1201.73 795.324 L 1207.43 944.063 C 1208.97 997.902 1225.57 1016.26 1177.04 1045.12 C 1149.48 1047.74 1056.93 1001.72 1022.33 1003.02 C 1011.45 1003.44 999.801 1008.25 989.464 1011.53 L 928.125 1031.34 C 910.769 1037.13 886.201 1049.64 867.475 1045.12 C 822.73 1020.15 838.346 1008.14 838.078 959.979 L 840.575 760.83 C 840.791 748.158 841.531 735.282 840.406 722.654 C 806.085 749.749 769.589 815.422 726.46 820.501 C 702.239 823.353 680.454 806.11 660.057 795.715 L 567.991 748.578 C 549.994 739.457 518.56 732.591 516.129 708.916 C 526.499 690.585 532.474 670.608 544.808 653.169 C 549.894 648.238 554.553 648.621 561.19 648.351 C 586.998 649.416 679.684 710.248 714.615 722.654 C 729.202 708.537 741.689 690.373 754.867 674.817 C 812.96 606.24 858.724 551.582 944.058 520.156 C 957.187 557.551 974.104 614.66 990.138 648.351 C 992.294 665.061 1013.26 722.625 1020.86 739.127 C 1030.17 705.646 1044.14 673.733 1052.73 639.955 C 1059.77 627.472 1063.99 613.44 1068.47 599.885 L 1084.96 550.959 C 1088.45 540.615 1091.48 530.126 1095.96 520.156 z"/>
</svg>