<svg version="1.1" xmlns="http://www.w3.org/2000/svg" style="display: block;" viewBox="0 0 2048 2048" width="512" height="512">
<path transform="translate(0,0)" fill="rgb(230,230,78)" d="M 1242.79 503.581 L 1246.77 503.709 C 1262.15 513.121 1263.16 529.364 1242.79 535.865 C 1229.18 536.835 1229.43 519.596 1227.45 509.541 C 1232.54 507.153 1237.32 504.979 1242.79 503.581 z"/>
<path transform="translate(0,0)" fill="rgb(230,230,78)" d="M 1072.81 403.378 C 1078.88 403.171 1085.02 403.358 1091.09 403.378 C 1091.81 410.819 1092.54 417.724 1094.39 424.996 C 1089.05 427.116 1083.47 428.604 1077.96 430.222 C 1073.6 429.853 1069.13 430.137 1064.76 430.222 C 1061.41 422.592 1060.31 414.823 1059.47 406.611 C 1063.84 404.939 1068.23 404.204 1072.81 403.378 z"/>
<path transform="translate(0,0)" fill="rgb(230,230,78)" d="M 1077.96 328.788 C 1088.76 329.274 1097.41 335.45 1105.89 341.515 C 1102.29 348.094 1098.66 354.478 1094.39 360.65 C 1073.47 355.613 1060.6 351.143 1077.96 328.788 z"/>
<path transform="translate(0,0)" fill="rgb(230,230,78)" d="M 1111.2 463.692 L 1112.73 463.737 C 1120.43 467.808 1124.49 474.458 1129.5 481.332 C 1123.54 487.59 1117.55 493.849 1111.2 499.709 C 1085.85 489.721 1093.27 478.356 1111.2 463.692 z"/>
<path transform="translate(0,0)" fill="rgb(230,230,78)" d="M 1163.51 503.581 C 1186.38 508.004 1192.25 523.481 1175.26 539.003 C 1145.43 531.585 1149.34 527.55 1163.51 503.581 z"/>
<path transform="translate(0,0)" fill="rgb(230,230,78)" d="M 1293.08 463.692 C 1299.84 465.169 1310.27 476.68 1316 481.332 C 1311.5 488.954 1307.03 496.409 1301.83 503.581 C 1293 497.993 1285.28 488.772 1277.96 481.332 C 1281.95 474.555 1287.42 469.073 1293.08 463.692 z"/>
<path transform="translate(0,0)" fill="rgb(230,230,78)" d="M 1312.93 403.378 C 1332.86 402.906 1358.25 404.269 1336.83 430.222 C 1327.18 428.59 1286.9 419.688 1312.93 403.378 z"/>
<path transform="translate(0,0)" fill="rgb(230,230,78)" d="M 1202.53 252.381 C 1206.35 252.135 1210.27 252.354 1214.1 252.381 C 1214.63 261.986 1213.57 271.691 1214.1 281.413 C 1209.1 281.877 1204.02 281.545 1199.01 281.413 C 1194.6 281.923 1190.51 283.133 1186.26 284.348 C 1185.21 264.002 1178.37 254.406 1202.53 252.381 z"/>
<path transform="translate(0,0)" fill="rgb(230,230,78)" d="M 1135.21 272.205 C 1142.8 278.701 1148.95 290.469 1153.82 299.07 C 1147.68 302.358 1141.57 305.591 1135.21 308.451 C 1126.63 309.064 1118.1 290.582 1114.39 284.348 C 1121.2 279.899 1127.95 275.859 1135.21 272.205 z"/>
<path transform="translate(0,0)" fill="rgb(230,230,78)" d="M 1324.43 324.996 L 1326.56 325.359 C 1345.96 346.601 1324.55 352.567 1308.2 360.65 C 1300.44 361.788 1298.1 343.012 1296.37 337.429 C 1305.53 332.088 1314.3 328.224 1324.43 324.996 z"/>
<path transform="translate(0,0)" fill="rgb(230,230,78)" d="M 1264.96 267.634 C 1274.06 269.839 1279.67 274.448 1285.51 281.413 C 1280.99 291.212 1275.18 300.28 1268.15 308.451 C 1260.86 304.673 1253.84 298.506 1247.35 293.443 C 1251.63 283.764 1257.57 275.173 1264.96 267.634 z"/>
<path transform="translate(0,0)" fill="rgb(225,101,86)" d="M 1261.88 644.261 L 1341.04 697.289 C 1357.36 708.304 1376.51 718.937 1390.05 733.282 C 1387.09 739.632 1382.97 745.456 1378.24 750.606 C 1372.24 746.541 1366.32 742.631 1359.9 739.253 C 1340.53 722.383 1288.54 688.847 1264.96 675.235 C 1242.19 692.652 1193.88 726.687 1175.26 746.266 L 1163.51 752.107 C 1158 746.017 1155.84 741.051 1153.82 733.282 C 1167.39 717.662 1243.39 657.237 1261.88 644.261 z"/>
<path transform="translate(0,0)" fill="rgb(230,230,78)" d="M 1199.01 314.969 C 1208.23 314.903 1211.46 315.665 1214.1 324.996 C 1233.78 333.282 1247.68 343.039 1253.68 365.007 L 1219.22 365.007 C 1214.72 360.249 1203.81 347.902 1198.39 358.86 C 1186.31 383.292 1280.68 386.008 1253.35 442.031 C 1245.63 457.864 1229.56 463.329 1214.1 468.66 C 1213.54 480.925 1210.48 480.909 1199.01 481.332 C 1189.75 474.768 1204.64 475.292 1176.75 461.421 C 1168.3 457.218 1148.94 435.512 1154.85 424.509 C 1165.44 419.707 1182.89 420.802 1194.51 420.069 C 1198.67 453.409 1218.17 435.846 1214.67 423.258 C 1210.8 409.317 1164.7 407.857 1155.18 379.019 C 1145.51 349.734 1169.81 332.533 1194.51 324.996 L 1199.01 314.969 z"/>
<path transform="translate(0,0)" fill="rgb(225,101,86)" d="M 782.934 1725.82 C 821.541 1700.12 860.89 1698.17 891.113 1737.54 C 896.383 1744.4 900.565 1751.53 906.82 1757.62 C 907.979 1769.12 909.472 1780.65 909.094 1792.23 L 752.395 1792.23 C 754.656 1765.89 763.643 1744.04 782.934 1725.82 z"/>
<path transform="translate(0,0)" fill="rgb(225,101,86)" d="M 928.978 1757.62 C 966.826 1712.14 993.792 1685.74 1053.28 1725.82 C 1072.55 1747.76 1079.09 1763.37 1083.51 1792.23 C 1044.81 1796.76 965.143 1793.18 924.993 1792.23 C 924.223 1777.28 929.068 1767.81 928.978 1757.62 z"/>
<path transform="translate(0,0)" fill="rgb(225,101,86)" d="M 885.786 455.201 C 888.346 418.388 948.475 410.736 955.657 459.83 C 1006.88 468.204 1047.83 516.291 1064.76 563.402 L 764.977 563.402 C 781.907 501.965 827.874 471.103 885.786 455.201 z"/>
<path transform="translate(0,0)" fill="rgb(155,155,155)" d="M 1264.96 675.235 C 1288.54 688.847 1340.53 722.383 1359.9 739.253 C 1357.8 751.108 1359.87 773.55 1359.88 786.656 L 1359.9 913.21 L 1293.08 913.21 L 1293.18 861.498 C 1293.25 851.06 1293.97 840.482 1293.08 830.074 C 1283.95 816.666 1268.65 806.008 1253.08 817.394 C 1239.23 827.516 1242.57 849.074 1242.6 863.956 L 1242.79 913.21 L 1175.26 913.21 C 1178.37 862.816 1176.21 797.145 1175.26 746.266 C 1193.88 726.687 1242.19 692.652 1264.96 675.235 z"/>
<path transform="translate(0,0)" fill="rgb(105,138,202)" d="M 740.44 909.31 C 784.082 942.206 760.085 1026.94 755.231 1075.52 C 752.998 1097.87 752.435 1121.44 748.016 1143.44 C 787.143 1139.56 825.939 1132.14 865.017 1128.22 L 865.017 1225.54 C 853.252 1223.63 761.859 1235.63 748.016 1239.72 C 703.112 1249.53 655.182 1232.67 657.649 1178.69 C 658.865 1152.06 669.703 1112.59 675.241 1085.69 C 688.174 1022.86 690.366 955.264 740.44 909.31 z"/>
<path transform="translate(0,0)" fill="rgb(105,138,202)" d="M 1094.39 909.31 C 1138.3 933.632 1146.29 1025.56 1155.13 1069.73 C 1169.43 1141.15 1214.55 1256.07 1091.09 1243.82 C 1073.38 1241.22 968.516 1228.84 960.893 1216.54 C 964.622 1213.15 967.095 1209.68 969.636 1205.34 C 970.946 1176.85 975.567 1150.5 955.657 1128.22 C 993.591 1125.79 1047.35 1142.38 1084.98 1151.7 L 1072.85 1040.02 C 1069.3 1006.45 1053.49 925.851 1094.39 909.31 z"/>
<path transform="translate(0,0)" fill="rgb(155,155,155)" d="M 998.221 870.36 C 1032.11 884.156 1049.98 868.946 1094.39 909.31 C 1053.49 925.851 1069.3 1006.45 1072.85 1040.02 L 1084.98 1151.7 C 1047.35 1142.38 993.591 1125.79 955.657 1128.22 C 940.227 1125.95 872.967 1110.53 865.017 1128.22 C 825.939 1132.14 787.143 1139.56 748.016 1143.44 C 752.435 1121.44 752.998 1097.87 755.231 1075.52 C 760.085 1026.94 784.082 942.206 740.44 909.31 C 769.452 887.475 797.261 876.455 832.673 870.36 C 838.319 966.024 994.031 959.43 998.221 870.36 z"/>
<path transform="translate(0,0)" fill="rgb(230,230,78)" d="M 764.977 563.402 L 1064.76 563.402 C 1090.62 571.335 1088.34 606.492 1069.45 621.26 C 1069.43 631.733 1069.31 642.217 1069.45 652.689 C 1121.37 673.525 1113.32 724.741 1067.18 750.606 C 1057.74 789.068 1049.3 816.566 1021.33 846.052 C 1014.75 852.985 1001.45 861.623 998.221 870.36 C 994.031 959.43 838.319 966.024 832.673 870.36 C 832.485 869.184 832.659 867.307 832.673 866.096 C 795.404 831.267 771.219 800.002 764.977 746.266 C 715.769 740.485 709.944 672.761 764.977 656.986 L 764.977 621.26 C 733.985 617.91 732.301 563.432 764.977 563.402 z"/>
<path transform="translate(0,0)" fill="rgb(105,138,202)" d="M 880.343 652.689 C 919.055 665.816 830.387 701.364 822.467 704.169 C 815.713 703.183 812.318 701.09 811.038 693.737 C 813.558 681.166 835.614 679.887 845.395 675.876 C 858.216 670.619 869.415 661.006 880.343 652.689 z"/>
<path transform="translate(0,0)" fill="rgb(105,138,202)" d="M 945.513 652.689 C 957.657 655.244 975.666 676.833 995.918 681.993 C 1008.91 685.303 1029.32 687.549 1012.5 704.169 C 1000.02 702.411 914.2 675.529 945.513 652.689 z"/>
<path transform="translate(0,0)" fill="rgb(94,96,130)" d="M 858.416 704.169 C 889.391 704.153 891.269 741.922 865.017 750.606 C 835.099 750.719 831.613 711.968 858.416 704.169 z"/>
<path transform="translate(0,0)" fill="rgb(94,96,130)" d="M 966.059 704.169 C 996.302 703.123 1004.09 738.048 978.081 750.606 C 948.379 755.964 941.836 718.5 966.059 704.169 z"/>
<path transform="translate(0,0)" fill="rgb(155,155,155)" d="M 906.82 717.25 C 949.239 711.448 960.812 757.378 924.993 779.394 C 886.448 788.795 867.25 734.198 906.82 717.25 z"/>
<path transform="translate(0,0)" fill="rgb(94,96,130)" d="M 909.094 784.32 C 927.732 781.79 949.154 792.478 962.722 804.543 C 978.708 818.759 967.545 827.635 955.657 839.804 C 943.423 830.154 935.243 821.702 919.365 818.194 C 896.131 816.189 888.809 827.085 872.405 839.804 C 864.207 833.999 858.659 826.938 853.903 818.194 C 864.959 798.351 887.253 787.364 909.094 784.32 z"/>
<path transform="translate(0,0)" fill="rgb(105,138,202)" d="M 764.977 563.402 L 1064.76 563.402 C 1090.62 571.335 1088.34 606.492 1069.45 621.26 C 967.984 621.508 866.433 620.168 764.977 621.26 C 733.985 617.91 732.301 563.432 764.977 563.402 z"/>
<path transform="translate(0,0)" fill="rgb(155,155,155)" d="M 865.017 1128.22 C 872.967 1110.53 940.227 1125.95 955.657 1128.22 C 975.567 1150.5 970.946 1176.85 969.636 1205.34 C 967.095 1209.68 964.622 1213.15 960.893 1216.54 C 968.516 1228.84 1073.38 1241.22 1091.09 1243.82 C 1091.38 1270.5 1094.05 1297.16 1084.98 1322.72 C 1083.78 1433.26 1075.36 1543.74 1063.32 1653.6 C 1061.22 1672.71 1059.56 1708.7 1053.28 1725.82 C 993.792 1685.74 966.826 1712.14 928.978 1757.62 C 924.756 1681.35 926.652 1603.75 922.784 1526.5 C 921.589 1502.63 921.611 1477.43 918.128 1453.81 L 918.111 1453.8 C 915.62 1460.18 916.571 1480.02 916.136 1487.99 C 911.426 1574.3 905.236 1671.16 906.82 1757.62 C 900.565 1751.53 896.383 1744.4 891.113 1737.54 C 860.89 1698.17 821.541 1700.12 782.934 1725.82 C 766.783 1627.64 758.279 1527.15 753.873 1427.7 C 752.889 1405.48 754.983 1339.93 748.016 1322.72 C 747.074 1315.41 748.044 1306.76 748.044 1299.31 L 748.016 1239.72 C 761.859 1235.63 853.252 1223.63 865.017 1225.54 L 865.017 1128.22 z"/>
<path transform="translate(0,0)" fill="rgb(230,230,78)" d="M 865.017 1128.22 C 872.967 1110.53 940.227 1125.95 955.657 1128.22 C 975.567 1150.5 970.946 1176.85 969.636 1205.34 C 967.095 1209.68 964.622 1213.15 960.893 1216.54 C 944.196 1219.86 876.496 1235.57 865.017 1225.54 L 865.017 1128.22 z"/>
</svg>