<svg version="1.1" xmlns="http://www.w3.org/2000/svg" style="display: block;" viewBox="0 0 2048 2048" width="512" height="512">
<path transform="translate(0,0)" fill="rgb(155,155,155)" d="M 512.682 985.758 C 516.616 987.174 537.304 1007.85 544.801 1012.77 C 533.362 1021.5 523.631 1032.17 512.682 1041.51 L 510.076 1041.98 C 499.141 1036.09 489.34 1022.48 481.941 1012.77 C 492.075 1003.78 501.602 993.565 512.682 985.758 z"/>
<path transform="translate(0,0)" fill="rgb(155,155,155)" d="M 573.885 1044.51 C 583.378 1048.29 599.256 1068.4 606.362 1076.12 C 596.402 1084.53 586.651 1092.98 578.116 1102.87 C 569.767 1107.66 550.464 1081.69 544.801 1076.12 C 553.509 1064.65 563.495 1054.45 573.885 1044.51 z"/>
<path transform="translate(0,0)" fill="rgb(155,155,155)" d="M 692.262 1212.55 C 701.592 1224 713.261 1233.15 723.134 1244.1 C 711.646 1253.38 702.009 1262.97 692.262 1274.03 C 682.259 1267.42 674.59 1258.57 665.26 1251.24 L 660.388 1244.1 C 670.471 1233.35 681.206 1222.29 692.262 1212.55 z"/>
<path transform="translate(0,0)" fill="rgb(155,155,155)" d="M 651.424 1107.67 C 661.983 1118.52 672.403 1129.9 683.727 1139.97 C 673.757 1149.09 660.822 1158.53 655.019 1171 C 653.853 1170.88 652.599 1170.98 651.424 1171 C 641.998 1159.68 630.424 1150.65 620.352 1139.97 C 631.069 1129.46 641.294 1118.74 651.424 1107.67 z"/>
<path transform="translate(0,0)" fill="rgb(225,101,86)" d="M 1428.04 553.054 C 1444.48 553.035 1461.15 554.054 1477.55 553.054 C 1476.38 568.626 1477.44 584.901 1477.55 600.536 C 1461.08 601.022 1444.53 600.31 1428.04 600.536 C 1426.88 584.936 1427.99 568.725 1428.04 553.054 z"/>
<path transform="translate(0,0)" fill="rgb(225,101,86)" d="M 1572.29 411.009 L 1625.78 411.009 L 1625.78 455.893 C 1607.99 455.676 1590.06 455.098 1572.29 455.893 C 1573.55 441.347 1573.38 425.569 1572.29 411.009 z"/>
<path transform="translate(0,0)" fill="rgb(225,101,86)" d="M 1280.71 411.009 L 1335.99 411.009 C 1334.74 426.497 1332.47 440.465 1335.99 455.893 L 1280.71 455.893 L 1280.71 411.009 z"/>
<path transform="translate(0,0)" fill="rgb(225,101,86)" d="M 1353.71 501.197 C 1361.44 514.841 1373.84 525.902 1386.23 535.278 C 1372.9 547.83 1360.67 561.55 1347.12 573.851 C 1336.87 563.088 1326.53 552.31 1315.06 542.833 L 1317.13 540.167 C 1327.9 526.116 1341.85 514.405 1353.71 501.197 z"/>
<path transform="translate(0,0)" fill="rgb(225,101,86)" d="M 1431.54 260.757 L 1477.55 260.757 C 1477.86 278.867 1477.56 297.028 1477.55 315.143 L 1431.54 315.143 C 1431.46 297.014 1431.36 278.886 1431.54 260.757 z"/>
<path transform="translate(0,0)" fill="rgb(225,101,86)" d="M 1562.35 294.696 C 1573.31 305.827 1585.87 316.873 1595.48 329.128 C 1581.8 341.934 1568.47 356.032 1554.24 368.127 C 1546.6 356.466 1535.72 342.966 1523.02 336.593 C 1536.6 323.089 1548.53 307.844 1562.35 294.696 z"/>
<path transform="translate(0,0)" fill="rgb(225,101,86)" d="M 1554.24 501.197 C 1568.92 510.787 1586.27 527.792 1595.48 542.833 C 1586.71 554.063 1575.54 563.884 1565.36 573.851 C 1551.27 559.877 1537.84 544.778 1523.02 531.626 C 1535.47 526.152 1545.76 511.359 1554.24 501.197 z"/>
<path transform="translate(0,0)" fill="rgb(225,101,86)" d="M 1311.59 329.128 C 1320.29 316.525 1332.77 300.939 1347.12 294.696 C 1359.8 308.912 1375.2 320.986 1386.23 336.593 C 1371.68 342.151 1362.51 355.919 1353.71 368.127 C 1340.77 354.392 1327.63 339.219 1311.59 329.128 z"/>
<path transform="translate(0,0)" fill="rgb(117,199,179)" d="M 768.886 789.052 L 814.978 789.052 L 814.978 848.902 C 805.314 860.628 793.875 871.388 783.16 882.153 C 782.431 895.621 783.154 909.488 783.16 923.001 C 768.52 924.236 752.866 923.055 738.118 923.001 C 737.556 903.468 738.069 883.804 738.118 864.258 C 747.606 852.723 758.713 843.184 768.886 832.342 C 770.031 818.235 768.917 803.256 768.886 789.052 z"/>
<path transform="translate(0,0)" fill="rgb(117,199,179)" d="M 1254.99 1036.97 L 1255.32 1036.86 L 1256.34 1037.82 C 1255.18 1051.52 1254.97 1065.02 1254.99 1078.76 C 1301.94 1088.96 1294.17 1132.43 1293.97 1171 L 1254.99 1171 C 1245.88 1170.29 1249.94 1132.19 1250 1124.79 C 1202.93 1109.67 1210.74 1080.04 1211.02 1036.97 L 1254.99 1036.97 z"/>
<path transform="translate(0,0)" fill="rgb(225,101,86)" d="M 1049.36 492.374 C 1113.45 484.956 1139.4 577.171 1062.77 596.445 C 990.728 606.059 976.186 501.584 1049.36 492.374 z"/>
<path transform="translate(0,0)" fill="rgb(124,112,111)" d="M 1062.77 558.324 C 1055.8 516.257 1097.63 527.104 1088.38 558.324 C 1083.05 563.275 1076.53 560.649 1071.72 564.346 C 1072.18 574.667 1069.88 577.413 1059.47 580.702 C 1047.47 584.49 1040.36 567.58 1024.74 558.324 C 1021.7 542.477 1023.17 537.824 1038.19 531.626 C 1047.52 531.138 1051.05 539.508 1053.39 547.054 C 1049.04 559.417 1050.13 560.423 1062.77 558.324 z"/>
<path transform="translate(0,0)" fill="rgb(155,155,155)" d="M 412.991 938.757 L 445.131 938.757 L 445.131 1012.77 L 553.948 1123.42 C 572.431 1142.26 591.831 1160.21 609.542 1179.8 C 597.988 1183.75 589.015 1191.68 578.116 1195.88 C 564.175 1181.5 550.287 1167.03 536.612 1152.39 L 536.612 1152.39 L 412.991 1026.3 C 413.011 997.203 413.942 967.816 412.991 938.757 z"/>
<path transform="translate(0,0)" fill="rgb(225,101,86)" d="M 930.18 1082.73 C 979.003 1159.96 1031.36 1245.46 1076.87 1325.15 L 783.16 1325.15 C 788.42 1300.99 807.916 1278.04 820.701 1257.24 C 853.363 1204.11 893.45 1130.84 930.18 1082.73 z"/>
<path transform="translate(0,0)" fill="rgb(230,230,78)" d="M 536.612 1152.39 L 536.612 1152.39 C 550.287 1167.03 564.175 1181.5 578.116 1195.88 C 589.015 1191.68 597.988 1183.75 609.542 1179.8 C 623.275 1175.79 637.311 1173.23 651.424 1171 C 652.599 1170.98 653.853 1170.88 655.019 1171 C 650.548 1187.37 646.795 1203.92 642.974 1220.45 C 648.662 1228.43 654.334 1236.39 660.388 1244.1 L 665.26 1251.24 C 676.46 1273.85 684.522 1299.6 683.727 1325.15 C 675.408 1326.88 664.002 1325.45 655.4 1325.36 L 361.242 1325.15 C 357.195 1297.05 379.847 1200.8 405.936 1192.01 C 413.887 1198.49 419.945 1252.9 430.758 1257.4 C 445.789 1246.97 441.808 1184.59 536.612 1152.39 z M 536.612 1152.39 C 533.124 1183.24 529.964 1212.95 532.131 1244.1 C 549.748 1229.42 556.869 1210.07 578.116 1195.88 C 564.175 1181.5 550.287 1167.03 536.612 1152.39 z"/>
<path transform="translate(0,0)" fill="rgb(230,230,78)" d="M 1431.54 315.143 L 1477.55 315.143 C 1494.72 319.553 1508.45 326.546 1523.02 336.593 C 1535.72 342.966 1546.6 356.466 1554.24 368.127 C 1562.47 382.302 1568.44 395.067 1572.29 411.009 C 1573.38 425.569 1573.55 441.347 1572.29 455.893 C 1569.35 463.278 1555.24 495.971 1554.24 501.197 C 1545.76 511.359 1535.47 526.152 1523.02 531.626 C 1510.43 538.341 1487.09 546.922 1477.55 553.054 C 1461.15 554.054 1444.48 553.035 1428.04 553.054 C 1414.38 546.203 1399.72 542.793 1386.23 535.278 C 1373.84 525.902 1361.44 514.841 1353.71 501.197 C 1345.34 486.737 1341.45 471.483 1335.99 455.893 C 1332.47 440.465 1334.74 426.497 1335.99 411.009 C 1339.07 396.117 1346.63 381.479 1353.71 368.127 C 1362.51 355.919 1371.68 342.151 1386.23 336.593 C 1399.84 325.028 1414.91 320.737 1431.54 315.143 z"/>
<path transform="translate(0,0)" fill="rgb(105,138,202)" d="M 991.107 692.054 C 965.379 708.754 942.113 746.799 915.293 757.361 C 896.942 764.587 883.241 744.388 892.642 728.707 C 899.022 718.065 988.846 631.456 1002.24 621.944 C 1074.74 570.463 1123.11 635.049 1168.67 679.999 C 1181.9 693.057 1218.14 720.995 1221.58 739.335 C 1224.71 755.979 1207.98 771.91 1192.37 763.196 C 1174.25 753.083 1137.34 708.517 1117.51 692.054 C 1116.24 742.269 1116.13 774.992 1126.32 823.461 L 1143.17 900.035 C 1147.86 920.844 1168.54 971.678 1133.4 974.854 C 1106.25 977.308 1102.32 910.471 1098.42 892.539 L 1083.44 823.682 C 1081.03 812.336 1077.64 800.639 1076.87 789.052 C 1064.08 795.657 1050.16 798.535 1038.19 789.052 C 1026.01 813.793 1008.36 836.546 991.107 857.956 C 1001.46 878.97 1034.18 955.316 998.474 966.301 C 972.885 974.174 968.419 935.149 964.385 919.018 C 939.903 821.111 942.419 867.938 991.107 782.219 C 991.034 752.31 992.686 721.876 991.107 692.054 z"/>
<path transform="translate(0,0)" fill="rgb(225,101,86)" d="M 1038.19 789.052 C 1022.09 779.03 1015.83 769.648 1015.1 749.66 C 1014.39 729.967 1012.55 675.077 1017.44 658.512 C 1025.68 630.601 1066.88 627.162 1085.66 646.26 C 1102.57 663.458 1098.76 756.566 1093.84 769.252 C 1090.89 776.857 1082.51 783.273 1076.87 789.052 C 1064.08 795.657 1050.16 798.535 1038.19 789.052 z"/>
<path transform="translate(0,0)" fill="rgb(105,138,202)" d="M 588.723 309.425 C 671.133 305.181 692.257 338.123 738.118 389.012 C 831.883 381.542 890.27 453.578 888.761 542.833 L 609.542 542.833 L 304.987 542.833 C 306.033 443.047 366.717 388.635 464.868 389.012 C 487.796 341.098 536.821 314.265 588.723 309.425 z"/>
<path transform="translate(0,0)" fill="rgb(117,199,179)" d="M 1539.06 1179.8 C 1531.88 1179.65 1524.54 1177.09 1517.79 1174.82 C 1330.96 1111.96 1381.85 831.74 1583.75 840.176 C 1790.09 848.799 1799.34 1154.71 1601.03 1179.8 C 1601.9 1228.35 1612.64 1276.53 1614.23 1325.15 C 1603.06 1326.12 1533.28 1326.53 1524.02 1324.47 L 1523.02 1322.27 L 1539.06 1179.8 z"/>
<path transform="translate(0,0)" fill="rgb(124,112,111)" d="M 1545.11 1041.51 L 1545.25 1039.51 C 1546.66 1017.13 1541.49 975.389 1546.69 956.514 C 1552.96 933.779 1590.41 934.567 1594.61 958.095 C 1596.41 968.222 1595.59 979.372 1595.59 989.638 L 1595.48 1041.51 C 1607.31 1029.34 1633.86 998.027 1651 997.558 C 1664.57 997.187 1677.37 1009.27 1676.52 1023.11 C 1675.46 1040.44 1609.13 1095.25 1595.48 1113.38 C 1595.69 1123.61 1598.64 1172.88 1601.03 1179.8 C 1601.9 1228.35 1612.64 1276.53 1614.23 1325.15 C 1603.06 1326.12 1533.28 1326.53 1524.02 1324.47 L 1523.02 1322.27 L 1539.06 1179.8 C 1541.94 1158.09 1544.66 1135.26 1545.11 1113.38 C 1527.58 1083.22 1459.27 1041.74 1466.22 1015.26 C 1469.44 1003.01 1485.52 994.588 1497.48 998.653 C 1514.51 1004.44 1532.27 1028.74 1545.11 1041.51 z"/>
<path transform="translate(0,0)" fill="rgb(117,199,179)" d="M 304.987 1518.02 C 312.371 1520.74 318.498 1525.28 325.197 1529.28 C 422.975 1587.63 448.916 1537.7 543.505 1510.85 C 702.419 1465.74 747.633 1612.85 860.966 1564.88 C 882.62 1555.72 901.822 1541.44 922.71 1530.7 C 1015.67 1482.87 1078 1512.44 1161.5 1548.13 C 1316.44 1614.36 1361.53 1456.14 1557.33 1527.87 C 1640.27 1558.26 1655.3 1555.44 1741 1531.39 C 1740.99 1584.24 1741.7 1637.18 1741 1690.02 L 304.987 1690.02 L 304.987 1518.02 z"/>
<path transform="translate(0,0)" fill="rgb(155,155,155)" d="M 1523.02 1322.27 L 1524.02 1324.47 C 1533.28 1326.53 1603.06 1326.12 1614.23 1325.15 L 1741 1325.15 L 1741 1531.39 C 1655.3 1555.44 1640.27 1558.26 1557.33 1527.87 C 1361.53 1456.14 1316.44 1614.36 1161.5 1548.13 C 1078 1512.44 1015.67 1482.87 922.71 1530.7 C 901.822 1541.44 882.62 1555.72 860.966 1564.88 C 747.633 1612.85 702.419 1465.74 543.505 1510.85 C 448.916 1537.7 422.975 1587.63 325.197 1529.28 C 318.498 1525.28 312.371 1520.74 304.987 1518.02 L 304.987 1325.15 C 323.341 1326.61 342.889 1326.51 361.242 1325.15 L 655.4 1325.36 C 664.002 1325.45 675.408 1326.88 683.727 1325.15 C 712.816 1324.88 755.614 1328.2 783.16 1325.15 L 1076.87 1325.15 C 1114.42 1323.59 1152.73 1325.14 1190.36 1325.14 L 1485.74 1325.2 C 1496.8 1325.24 1511.24 1326.95 1521.9 1324.34 L 1523.02 1322.27 z"/>
<path transform="translate(0,0)" fill="rgb(230,230,78)" d="M 1238.06 1381.1 C 1259.35 1379.49 1263.08 1388.33 1264.86 1407.35 C 1265.16 1410.48 1268.43 1416.16 1268.24 1410.19 C 1267.58 1389.41 1286.06 1368.77 1305.49 1386.6 C 1312.32 1392.86 1309.38 1402.51 1309.8 1410.65 C 1314.09 1417.4 1331.72 1413.62 1338.75 1425.77 C 1351.81 1448.35 1311.15 1476.24 1297.18 1445.91 L 1296.64 1444.73 C 1294.74 1438.58 1294.52 1432.07 1293.97 1425.7 C 1287.73 1458.72 1259.82 1476.5 1243.53 1437.43 C 1222.77 1497.61 1163.76 1418.4 1222.44 1414.32 C 1220.96 1398.03 1221.87 1388.63 1238.06 1381.1 z"/>
</svg>