<svg version="1.1" xmlns="http://www.w3.org/2000/svg" style="display: block;" viewBox="0 0 1538 2048" width="512" height="682">
<path transform="translate(0,0)" fill="rgb(225,101,86)" d="M 809.111 1817.09 C 817.369 1822.86 885.572 1823.52 897.055 1817.09 C 903.66 1846.1 802.7 1849.56 809.111 1817.09 z"/>
<path transform="translate(0,0)" fill="rgb(225,101,86)" d="M 551.379 1817.09 C 558.662 1824.71 640.841 1823.5 656.08 1804.77 C 677.777 1778.1 689.121 1782.8 706.724 1765.8 C 705.319 1779.11 697.746 1792.13 694.035 1805.01 C 689.583 1820.47 695.903 1839.08 678.48 1833.38 C 676.157 1820.89 675.217 1809.41 671.315 1796.92 C 666.905 1802.6 648.136 1832.63 644.904 1834.23 C 635.304 1840.15 523.689 1849.89 551.379 1817.09 z"/>
<path transform="translate(0,0)" fill="rgb(155,155,155)" d="M 496.003 1032.63 C 510.256 1035.11 524.181 1039.71 538.529 1042.28 C 536.441 1048.75 535.344 1055.41 535.436 1062.22 C 525.979 1090.57 534.384 1108.68 529.63 1130.49 L 528.938 1134.54 L 527.293 1135.61 C 522.502 1133.49 519.671 1126.65 517.345 1122.2 C 516.158 1118.91 515.829 1117.07 513.065 1114.67 C 497.233 1114.55 505.842 1148.24 507.627 1157.51 C 506.092 1193.73 481.117 1141.83 477.049 1132.29 C 458.681 1089.2 493.714 1075.17 496.003 1032.63 z"/>
<path transform="translate(0,0)" fill="rgb(230,230,78)" d="M 825.836 1694.02 C 826.159 1694.12 875.627 1695.05 878.022 1694.02 C 886.849 1707.12 881.717 1750.28 884.477 1768.43 C 886.98 1784.88 895.582 1800.73 897.055 1817.09 C 885.572 1823.52 817.369 1822.86 809.111 1817.09 C 811.211 1802.74 818.002 1789.56 820.467 1775.25 C 824.191 1753.63 815.764 1703.86 825.836 1694.02 z"/>
<path transform="translate(0,0)" fill="rgb(230,230,78)" d="M 632.668 1698.67 C 639.045 1701.35 686.497 1700.4 691.79 1698.67 C 694.473 1700 696.035 1700.33 699.014 1699.96 L 701.164 1698.67 C 698.601 1731.98 705 1738.44 706.724 1765.8 C 689.121 1782.8 677.777 1778.1 656.08 1804.77 C 640.841 1823.5 558.662 1824.71 551.379 1817.09 C 563.731 1809.11 579.085 1806.39 590.478 1797.08 C 632.217 1763 608.212 1705.91 632.668 1698.67 z"/>
<path transform="translate(0,0)" fill="rgb(225,101,86)" d="M 535.436 1062.22 C 557.348 1092.81 577.677 1137.53 598.51 1171.06 C 590.921 1209.59 595.438 1257.98 588.397 1300.5 C 568.448 1278.34 524.969 1187.94 507.627 1157.51 C 505.842 1148.24 497.233 1114.55 513.065 1114.67 C 515.829 1117.07 516.158 1118.91 517.345 1122.2 C 519.671 1126.65 522.502 1133.49 527.293 1135.61 L 528.938 1134.54 L 529.63 1130.49 C 534.384 1108.68 525.979 1090.57 535.436 1062.22 z"/>
<path transform="translate(0,0)" fill="rgb(155,155,155)" d="M 621.893 1386.38 C 653.045 1376.13 686.598 1373.67 717.17 1362.6 C 711.056 1421.4 709.933 1410.04 720.357 1465.07 C 734.745 1541.02 684.508 1655.68 691.79 1698.67 C 686.497 1700.4 639.045 1701.35 632.668 1698.67 C 641.803 1677.09 618.34 1446.99 621.893 1386.38 z"/>
<path transform="translate(0,0)" fill="rgb(155,155,155)" d="M 795.866 1362.6 C 821.758 1366.13 868.845 1371.64 890.892 1386.38 C 887.918 1399.05 898.138 1433.32 899.581 1450.43 C 904.63 1510.32 894.165 1571.56 885.789 1630.66 C 882.938 1650.78 877.225 1673.75 878.022 1694.02 C 875.627 1695.05 826.159 1694.12 825.836 1694.02 C 824.827 1620.03 796.016 1547.98 800.323 1467.83 C 801.337 1448.95 803.59 1429.75 802.704 1410.86 C 801.923 1394.2 795.223 1379.72 795.866 1362.6 z"/>
<path transform="translate(0,0)" fill="rgb(174,191,211)" d="M 595.355 443.537 C 607.564 445.272 625.245 441.429 619.912 425.529 C 616.811 416.28 570.972 422.881 590.127 394.415 C 596.953 398.112 598.471 417.43 615.113 405.892 C 641.668 387.482 602.477 294.125 692.211 236.1 C 730.504 211.338 753.282 230.448 785.911 241.888 C 836.885 259.76 856.207 278.385 857.88 337.918 C 859.319 389.11 861.137 370.71 885.305 409.167 C 902.193 436.041 891.952 475.899 865.185 492.488 L 849.867 481.967 C 846.819 451.509 846.035 448.576 805.954 438.753 C 801.209 446.686 796.311 453.83 789.625 460.255 C 756.737 482.405 729.233 484.039 701.164 453.285 L 691.79 438.753 C 667.819 450.067 654.948 475.152 644.904 498.458 C 611.03 498.071 597.63 475.09 595.355 443.537 z"/>
<path transform="translate(0,0)" fill="rgb(155,155,155)" d="M 818.067 353.056 C 827.885 347.451 830.639 349.271 835.822 359.183 C 836.299 373.997 835.977 389.272 818.067 390.697 C 816.014 384.433 816.504 359.965 818.067 353.056 z"/>
<path transform="translate(0,0)" fill="rgb(155,155,155)" d="M 674.479 394.763 C 647.588 380.485 632.269 347.368 674.479 353.056 C 676.6 354.966 677.916 355.678 678.743 358.453 L 677.835 359.629 C 670.112 369.747 672.808 382.874 674.479 394.763 z"/>
<path transform="translate(0,0)" fill="rgb(117,199,179)" d="M 674.479 353.056 C 696.973 343.361 762.463 291.982 777.102 301.03 C 789.255 308.541 813.523 337.181 818.067 353.056 C 816.504 359.965 816.014 384.433 818.067 390.697 L 817.264 390.765 L 818.14 392.256 L 817.141 390.912 L 816.774 393.524 L 816.82 392.967 C 816.998 408.892 812.028 424.172 805.954 438.753 C 801.209 446.686 796.311 453.83 789.625 460.255 C 756.737 482.405 729.233 484.039 701.164 453.285 L 691.79 438.753 C 683.755 424.334 681.524 406.866 674.479 394.763 C 672.808 382.874 670.112 369.747 677.835 359.629 L 678.743 358.453 C 677.916 355.678 676.6 354.966 674.479 353.056 z"/>
<path transform="translate(0,0)" fill="rgb(226,223,227)" d="M 703.24 371.591 L 700.515 371.586 C 692.895 365.541 699.483 359.356 706.724 359.183 C 705.523 363.237 704 367.442 703.24 371.591 z"/>
<path transform="translate(0,0)" fill="rgb(51,89,198)" d="M 706.724 359.183 C 723.025 358.622 725.281 372.545 703.24 371.591 C 704 367.442 705.523 363.237 706.724 359.183 z"/>
<path transform="translate(0,0)" fill="rgb(51,89,198)" d="M 773.605 359.183 C 782.684 359.419 791.708 364.055 782.098 371.591 C 773.966 372.597 762.627 364.422 773.605 359.183 z"/>
<path transform="translate(0,0)" fill="rgb(225,101,86)" d="M 717.17 423.879 C 730.994 425.824 772.882 424.664 775.432 425.347 L 776.039 427.027 C 774.269 430.456 771.465 432.448 768.541 434.844 C 749.696 446.623 710.216 438.348 717.17 423.879 z"/>
<path transform="translate(0,0)" fill="rgb(105,138,202)" d="M 619.047 1000.72 C 735.389 1018.36 799.289 1027.7 921.133 997.289 C 926.161 1029.44 933.313 1059.49 935.158 1092.24 C 938.642 1154.11 924.766 1328.3 900.358 1390.16 L 890.892 1386.38 C 868.845 1371.64 821.758 1366.13 795.866 1362.6 C 770.196 1362.09 742.459 1365.09 717.17 1362.6 C 686.598 1373.67 653.045 1376.13 621.893 1386.38 C 605.002 1389.97 587.82 1393.39 570.709 1395.72 C 579.968 1364.3 585.008 1333.05 588.397 1300.5 C 595.438 1257.98 590.921 1209.59 598.51 1171.06 C 607.584 1114.92 598.001 1062.14 619.047 1000.72 z"/>
<path transform="translate(0,0)" fill="rgb(230,230,78)" d="M 805.954 438.753 C 846.035 448.576 846.819 451.509 849.867 481.967 L 865.185 492.488 C 868.038 496.344 869.313 499.465 870.43 504.122 L 871.564 504.538 C 885.957 509.707 902.957 509.307 915.5 518.868 C 940.065 537.593 1015.21 671.346 1035.53 706.716 C 1046.78 726.287 1075.36 761.717 1066.98 785.614 C 1053.7 823.462 987.739 905.171 963.576 943.641 C 959.767 940.544 955.808 937.55 952.411 933.994 C 943.244 944.614 933.67 949.043 921.133 954.763 C 929.226 974.046 945.522 989.614 921.133 997.289 C 799.289 1027.7 735.389 1018.36 619.047 1000.72 C 598.001 1062.14 607.584 1114.92 598.51 1171.06 C 577.677 1137.53 557.348 1092.81 535.436 1062.22 C 535.344 1055.41 536.441 1048.75 538.529 1042.28 C 524.181 1039.71 510.256 1035.11 496.003 1032.63 C 482.477 1004.89 512.245 902.193 519.617 870.117 C 536.045 798.638 545.962 726.575 557.343 654.13 C 567.089 592.097 563.558 510.295 644.904 504.122 L 644.904 498.458 C 654.948 475.152 667.819 450.067 691.79 438.753 L 701.164 453.285 C 729.233 484.039 756.737 482.405 789.625 460.255 C 796.311 453.83 801.209 446.686 805.954 438.753 z M 619.047 750.413 C 586.382 841.412 591.502 944.419 551.379 1042.28 L 538.529 1042.28 C 536.441 1048.75 535.344 1055.41 535.436 1062.22 C 557.348 1092.81 577.677 1137.53 598.51 1171.06 C 607.584 1114.92 598.001 1062.14 619.047 1000.72 C 587.582 993.216 602.487 975.885 607.836 951.787 C 622.656 885.02 624.051 818.286 619.047 750.413 z M 907.824 674.473 C 903.28 697.964 902.538 722.246 898.82 745.923 C 886.114 826.839 878.535 817.998 917.248 904.495 L 917.603 905.275 C 923.293 895.014 928.874 884.443 936.011 875.093 C 949.648 848.97 979.189 804.377 988.342 779.391 C 982.025 758.04 918.426 681.789 907.824 674.473 z"/>
<path transform="translate(0,0)" fill="rgb(155,155,155)" d="M 818.067 954.763 C 826.806 941.839 866.082 906.784 880.186 904.665 C 892.066 902.879 904.407 906.81 916.511 905.408 L 917.603 905.275 C 929.863 912.736 942.157 923.987 952.411 933.994 C 943.244 944.614 933.67 949.043 921.133 954.763 C 915.895 954.985 910.588 954.793 905.343 954.763 C 896.744 962.687 886.753 971.106 876.33 976.462 C 867.19 972.734 859.557 972.223 849.867 971.767 C 852.157 968.21 855.228 965.271 858.157 962.246 C 842.174 965.931 832.566 960.94 818.067 954.763 z"/>
<path transform="translate(0,0)" fill="rgb(225,101,86)" d="M 805.954 438.753 C 846.035 448.576 846.819 451.509 849.867 481.967 L 865.185 492.488 C 868.038 496.344 869.313 499.465 870.43 504.122 C 867.222 515.081 863.06 525.293 858.157 535.579 C 877.866 593.933 883.92 782.438 865.185 850.897 C 844.321 843.808 823.682 835.843 802.847 828.603 C 779.127 820.426 755.503 806.959 731.767 800.304 C 735.259 738.155 765.127 646.253 789.625 589.349 C 741.195 610.215 712.339 625.288 676.04 575.065 C 663.178 557.27 641.254 526.772 644.904 504.122 L 644.904 498.458 C 654.948 475.152 667.819 450.067 691.79 438.753 L 701.164 453.285 C 729.233 484.039 756.737 482.405 789.625 460.255 C 796.311 453.83 801.209 446.686 805.954 438.753 z"/>
<path transform="translate(0,0)" fill="rgb(155,155,155)" d="M 701.164 453.285 C 729.233 484.039 756.737 482.405 789.625 460.255 C 792.908 467.064 794.303 474.626 795.866 481.967 C 788.644 498.022 761.552 522.111 745.516 528.911 C 725.661 518.083 693.879 477.963 701.164 453.285 z"/>
</svg>