<svg version="1.1" xmlns="http://www.w3.org/2000/svg" style="display: block;" viewBox="0 0 2048 2048" width="512" height="512">
<path transform="translate(0,0)" fill="rgb(40,40,40)" d="M 735.901 413.662 C 743.727 355.191 785.037 304.37 844.425 293.4 C 872.067 288.293 902.121 290.556 930.187 290.555 L 1143.11 290.467 C 1159.13 290.436 1175.81 289.229 1191.69 291.394 C 1259.32 300.609 1302.65 352.75 1310.93 417.913 L 1400.15 417.831 C 1501.2 417.807 1502.76 432.92 1502.72 539.426 L 1502.68 1070.91 C 1538.3 1071.01 1574.3 1069.52 1609.87 1070.91 C 1629.09 1086.41 1674.9 1136.24 1691.99 1156.92 C 1693.5 1170.22 1692.08 1184.68 1692.05 1198.12 L 1691.99 1441.25 C 1692 1468.1 1692.71 1495.05 1691.99 1521.87 C 1772.52 1524.05 1790.73 1501.34 1790.85 1589.5 L 1790.89 1646.8 C 1790.9 1684.14 1804.82 1733.21 1755.22 1733.9 C 1651.58 1735.34 1547.75 1733.91 1444.09 1733.9 L 352.016 1733.91 C 314.005 1733.91 257.275 1747.04 256.91 1694.64 L 256.879 1596.55 C 256.885 1570.34 248.164 1534.1 282.149 1525.97 C 301.002 1521.45 335.608 1523.7 356.082 1523.77 L 356.082 1156.92 C 376.618 1129.79 405.928 1096.3 428.849 1070.91 L 544.217 1070.91 C 544.937 1054.77 544.246 1038.35 544.243 1022.18 L 544.163 528.411 C 544.131 419.321 563.642 413.527 660.968 413.607 L 735.901 413.662 z M 989.211 1126.78 L 456.221 1126.78 C 441.051 1143.74 425.771 1161.76 412.283 1180.07 L 412.283 1523.77 L 1060.45 1523.77 L 1634.98 1523.77 L 1634.98 1180.07 C 1622.25 1160.1 1602.15 1144.41 1586.32 1126.78 L 989.211 1126.78 z"/>
<path transform="translate(0,0)" fill="rgb(147,43,40)" d="M 1189.36 898.879 C 1205.3 907.594 1222.71 917.632 1240.18 922.665 C 1216.8 969.179 1194.64 1027.24 1168.91 1070.91 C 1157.32 1072.22 1144.56 1070.99 1132.83 1070.97 L 1055.94 1070.91 C 1107.18 1018.95 1142.03 953.795 1189.36 898.879 z"/>
<path transform="translate(0,0)" fill="rgb(147,43,40)" d="M 856.892 898.879 C 878.668 921.407 897.445 948.703 916.181 973.825 L 989.211 1070.91 C 974.191 1072.68 896.291 1072.82 882.164 1070.91 C 862.656 1026.64 828.826 965.173 805.656 922.665 C 818.09 913.385 842.106 904.059 856.892 898.879 z"/>
<path transform="translate(0,0)" fill="rgb(50,70,100)" d="M 654.792 1070.91 C 676.61 1018.13 749.669 940.383 805.656 922.665 C 828.826 965.173 862.656 1026.64 882.164 1070.91 C 875.001 1069.99 866.806 1070.71 859.554 1070.75 L 654.792 1070.91 z"/>
<path transform="translate(0,0)" fill="rgb(50,70,100)" d="M 1240.18 922.665 C 1293.5 935.689 1374.32 1018.31 1401.31 1070.91 L 1190.83 1071.04 C 1183.71 1071.08 1175.96 1071.73 1168.91 1070.91 C 1194.64 1027.24 1216.8 969.179 1240.18 922.665 z"/>
<path transform="translate(0,0)" fill="rgb(255,255,255)" d="M 955.239 845.777 C 1006.7 865.182 1043.52 866.122 1094.96 845.777 C 1108.23 858.319 1125.3 867.449 1141.64 875.25 C 1130.29 890.908 1118.01 905.8 1106.21 921.109 L 1060.45 981.108 C 1048.19 996.947 1035.98 1012.81 1024.48 1029.21 C 1001.18 1006.82 981.113 975.217 961.504 949.476 C 942.795 924.916 922.274 901.007 905.286 875.25 C 921.906 864.75 939.433 857.923 955.239 845.777 z"/>
<path transform="translate(0,0)" fill="rgb(255,255,255)" d="M 824.614 526.989 C 809.244 486.809 779.501 439.338 798.991 396.57 C 825.163 339.141 880.166 346.848 931.796 346.875 L 1135.77 346.851 C 1150.51 346.822 1165.74 345.763 1180.4 346.793 C 1224.23 349.869 1258.04 393.28 1253.44 436.262 C 1251.02 458.841 1220.94 537.588 1209.67 564.569 C 1210.1 492.444 1225.98 470.802 1143.34 470.887 L 939.042 470.922 C 915.586 470.92 891.942 470.311 868.505 471.127 C 829.316 472.49 839.313 518.923 838.727 545.74 C 838.942 548.537 839.046 551.063 838.706 553.869 L 837.911 554.127 C 832.327 546.857 828.805 535.335 824.614 526.989 z"/>
<path transform="translate(0,0)" fill="rgb(90,20,20)" d="M 894.66 526.989 L 1152.73 526.989 L 1152.8 630.107 C 1152.83 688.92 1159.74 728.384 1115.19 773.382 C 1043.82 844.605 926.795 808.607 900.47 712.136 C 892.066 681.34 894.615 647.192 894.616 615.491 L 894.66 526.989 z"/>
<path transform="translate(0,0)" fill="rgb(40,40,40)" d="M 947.221 578.964 C 964.091 578.723 1018.83 576.322 1031.76 581.102 C 1061.04 591.922 1047.41 616.231 1039.38 634.919 C 1044.42 647.945 1052.06 661.668 1060.45 672.777 C 1092.82 673.225 1108.36 668.993 1119.45 704.196 C 1116.1 714.965 1112.48 721.815 1103.91 729.265 C 1077.46 740.659 1037.42 733.025 1017.05 713.976 C 991.758 690.338 990.353 667.583 989.211 634.919 C 975.614 634.829 955.015 638.081 942.576 632.839 C 915.547 621.448 922.089 587.158 947.221 578.964 z"/>
<path transform="translate(0,0)" fill="rgb(90,20,20)" d="M 343.149 1583.55 L 1730 1583.55 L 1730 1676.86 C 1722.96 1676.21 1715.5 1676.77 1708.42 1676.86 L 469.092 1676.87 C 417.564 1676.87 365.971 1677.46 314.451 1676.86 C 315.042 1645.8 314.494 1614.63 314.451 1583.55 C 324.012 1583.84 333.585 1583.65 343.149 1583.55 z"/>
<path transform="translate(0,0)" fill="rgb(90,20,20)" d="M 1310.93 417.913 L 1400.15 417.831 C 1501.2 417.807 1502.76 432.92 1502.72 539.426 L 1502.68 1070.91 C 1488.77 1071.07 1473.09 1068.66 1459.54 1070.91 C 1398.96 950.269 1335.65 906.201 1213.66 847.546 C 1199.08 840.538 1162.49 826.682 1152.73 816.69 C 1157 809.284 1163.37 803.472 1169.01 797.122 C 1191.85 771.41 1201.98 738.467 1213.89 706.843 L 1255.75 592.813 C 1275.6 540.281 1311.5 471.78 1310.93 417.913 z"/>
<path transform="translate(0,0)" fill="rgb(90,20,20)" d="M 544.217 1070.91 C 544.937 1054.77 544.246 1038.35 544.243 1022.18 L 544.163 528.411 C 544.131 419.321 563.642 413.527 660.968 413.607 L 735.901 413.662 C 735.837 455.987 742.769 467.854 758.58 506.595 C 783.984 568.841 810.181 630.971 833.93 693.864 C 856.127 752.646 856.971 767.907 898.462 816.69 C 783.692 872.412 693.643 902.747 621.775 1012.97 C 609.788 1031.35 602.779 1052.2 591.546 1070.91 C 575.783 1070.81 559.975 1070.47 544.217 1070.91 z"/>
<path transform="translate(0,0)" fill="rgb(120,120,120)" d="M 989.211 1126.78 L 1586.32 1126.78 C 1602.15 1144.41 1622.25 1160.1 1634.98 1180.07 L 1634.98 1523.77 L 1060.45 1523.77 L 412.283 1523.77 L 412.283 1180.07 C 425.771 1161.76 441.051 1143.74 456.221 1126.78 L 989.211 1126.78 z M 1024.48 1171.45 C 1011.39 1200.56 1001.31 1230.99 989.211 1260.51 C 957.408 1264.28 919.653 1266.34 888.902 1272.71 C 912.658 1295.48 941.191 1313.59 963.797 1337.29 C 956.27 1368.96 947.831 1400.49 941.776 1432.47 C 950.134 1425.65 1019.85 1383.32 1026.61 1382.89 C 1054.64 1398.41 1083.6 1414.7 1110.27 1432.47 L 1095.27 1368.77 C 1092.91 1358.54 1089.58 1347.69 1088.51 1337.29 C 1109.06 1312.06 1138.97 1296.07 1161.27 1272.71 C 1129.01 1267 1095.76 1266.62 1063.74 1260.51 C 1057.58 1248.56 1029.42 1175 1024.48 1171.45 z"/>
</svg>